solid ascii
  facet normal 1.000000e+000 0.000000e+000 -0.000000e+000
    outer loop
      vertex   -7.994125e+000 2.664641e-001 0.000000e+000
      vertex   -7.994125e+000 1.226646e+001 0.000000e+000
      vertex   -7.994125e+000 2.664641e-001 2.000000e+000
    endloop
  endfacet
  facet normal 1.000000e+000 -0.000000e+000 0.000000e+000
    outer loop
      vertex   -7.994125e+000 2.664641e-001 2.000000e+000
      vertex   -7.994125e+000 1.226646e+001 0.000000e+000
      vertex   -7.994125e+000 1.226646e+001 2.000000e+000
    endloop
  endfacet
  facet normal -0.000000e+000 0.000000e+000 -1.000000e+000
    outer loop
      vertex   5.874603e-003 2.664641e-001 2.000000e+000
      vertex   -7.994125e+000 2.664641e-001 2.000000e+000
      vertex   5.874603e-003 1.226646e+001 2.000000e+000
    endloop
  endfacet
  facet normal -0.000000e+000 0.000000e+000 -1.000000e+000
    outer loop
      vertex   5.874603e-003 1.226646e+001 2.000000e+000
      vertex   -7.994125e+000 2.664641e-001 2.000000e+000
      vertex   -7.994125e+000 1.226646e+001 2.000000e+000
    endloop
  endfacet
  facet normal -3.041046e-016 -1.000000e+000 -1.870484e-015
    outer loop
      vertex   -3.099413e+001 2.664641e-001 0.000000e+000
      vertex   -7.994125e+000 2.664641e-001 0.000000e+000
      vertex   -1.299413e+001 2.664641e-001 2.000000e+000
    endloop
  endfacet
  facet normal -4.934325e-016 -1.000000e+000 -1.665335e-016
    outer loop
      vertex   -3.099413e+001 2.664641e-001 2.000000e+000
      vertex   -3.099413e+001 2.664641e-001 0.000000e+000
      vertex   -1.299413e+001 2.664641e-001 2.000000e+000
    endloop
  endfacet
  facet normal 1.110223e-015 -1.000000e+000 0.000000e+000
    outer loop
      vertex   5.874603e-003 2.664641e-001 2.000000e+000
      vertex   5.874603e-003 2.664641e-001 4.000000e+000
      vertex   -7.994125e+000 2.664641e-001 2.000000e+000
    endloop
  endfacet
  facet normal 8.540177e-016 -1.000000e+000 1.024821e-015
    outer loop
      vertex   -7.994125e+000 2.664641e-001 2.000000e+000
      vertex   5.874603e-003 2.664641e-001 4.000000e+000
      vertex   -1.299413e+001 2.664641e-001 4.000000e+000
    endloop
  endfacet
  facet normal 4.440892e-016 -1.000000e+000 0.000000e+000
    outer loop
      vertex   -1.299413e+001 2.664641e-001 2.000000e+000
      vertex   -7.994125e+000 2.664641e-001 2.000000e+000
      vertex   -1.299413e+001 2.664641e-001 4.000000e+000
    endloop
  endfacet
  facet normal 4.440892e-016 -1.000000e+000 0.000000e+000
    outer loop
      vertex   -1.299413e+001 2.664641e-001 2.000000e+000
      vertex   -7.994125e+000 2.664641e-001 0.000000e+000
      vertex   -7.994125e+000 2.664641e-001 2.000000e+000
    endloop
  endfacet
  facet normal 1.000000e+000 4.625929e-017 0.000000e+000
    outer loop
      vertex   5.874603e-003 2.664641e-001 2.000000e+000
      vertex   5.874603e-003 1.226646e+001 2.000000e+000
      vertex   5.874603e-003 2.664641e-001 4.000000e+000
    endloop
  endfacet
  facet normal 1.000000e+000 4.625929e-017 -0.000000e+000
    outer loop
      vertex   5.874603e-003 2.664641e-001 4.000000e+000
      vertex   5.874603e-003 1.226646e+001 2.000000e+000
      vertex   5.874603e-003 1.226646e+001 4.000000e+000
    endloop
  endfacet
  facet normal -1.000000e+000 0.000000e+000 0.000000e+000
    outer loop
      vertex   -1.299413e+001 1.226646e+001 2.000000e+000
      vertex   -1.299413e+001 2.664641e-001 2.000000e+000
      vertex   -1.299413e+001 1.226646e+001 4.000000e+000
    endloop
  endfacet
  facet normal -1.000000e+000 -0.000000e+000 0.000000e+000
    outer loop
      vertex   -1.299413e+001 1.226646e+001 4.000000e+000
      vertex   -1.299413e+001 2.664641e-001 2.000000e+000
      vertex   -1.299413e+001 2.664641e-001 4.000000e+000
    endloop
  endfacet
  facet normal 0.000000e+000 0.000000e+000 1.000000e+000
    outer loop
      vertex   5.874603e-003 1.226646e+001 4.000000e+000
      vertex   -1.299413e+001 1.226646e+001 4.000000e+000
      vertex   5.874603e-003 2.664641e-001 4.000000e+000
    endloop
  endfacet
  facet normal 0.000000e+000 0.000000e+000 1.000000e+000
    outer loop
      vertex   5.874603e-003 2.664641e-001 4.000000e+000
      vertex   -1.299413e+001 1.226646e+001 4.000000e+000
      vertex   -1.299413e+001 2.664641e-001 4.000000e+000
    endloop
  endfacet
  facet normal -9.992094e-001 3.975652e-002 1.765544e-017
    outer loop
      vertex   -2.848306e+001 6.544540e+000 4.000000e+000
      vertex   -2.848306e+001 6.544540e+000 2.000000e+000
      vertex   -2.849413e+001 6.266464e+000 4.000000e+000
    endloop
  endfacet
  facet normal -9.928921e-001 1.190182e-001 5.298377e-017
    outer loop
      vertex   -2.848306e+001 6.544540e+000 4.000000e+000
      vertex   -2.844994e+001 6.820857e+000 2.000000e+000
      vertex   -2.848306e+001 6.544540e+000 2.000000e+000
    endloop
  endfacet
  facet normal -9.928921e-001 1.190182e-001 1.057094e-016
    outer loop
      vertex   -2.848306e+001 6.544540e+000 4.000000e+000
      vertex   -2.844994e+001 6.820857e+000 4.000000e+000
      vertex   -2.844994e+001 6.820857e+000 2.000000e+000
    endloop
  endfacet
  facet normal -9.802974e-001 1.975274e-001 1.754396e-016
    outer loop
      vertex   -2.844994e+001 6.820857e+000 2.000000e+000
      vertex   -2.844994e+001 6.820857e+000 4.000000e+000
      vertex   -2.839497e+001 7.093670e+000 2.000000e+000
    endloop
  endfacet
  facet normal -9.802974e-001 1.975274e-001 0.000000e+000
    outer loop
      vertex   -2.839497e+001 7.093670e+000 2.000000e+000
      vertex   -2.844994e+001 6.820857e+000 4.000000e+000
      vertex   -2.839497e+001 7.093670e+000 4.000000e+000
    endloop
  endfacet
  facet normal -9.615049e-001 2.747878e-001 3.615363e-016
    outer loop
      vertex   -2.831850e+001 7.361252e+000 2.000000e+000
      vertex   -2.839497e+001 7.093670e+000 4.000000e+000
      vertex   -2.831850e+001 7.361252e+000 4.000000e+000
    endloop
  endfacet
  facet normal -9.366335e-001 3.503108e-001 1.558346e-016
    outer loop
      vertex   -2.822101e+001 7.621913e+000 2.000000e+000
      vertex   -2.831850e+001 7.361252e+000 4.000000e+000
      vertex   -2.822101e+001 7.621913e+000 4.000000e+000
    endloop
  endfacet
  facet normal -9.058404e-001 4.236191e-001 0.000000e+000
    outer loop
      vertex   -2.810311e+001 7.874005e+000 2.000000e+000
      vertex   -2.822101e+001 7.621913e+000 4.000000e+000
      vertex   -2.810311e+001 7.874005e+000 4.000000e+000
    endloop
  endfacet
  facet normal -8.693203e-001 4.942492e-001 8.726738e-016
    outer loop
      vertex   -2.796557e+001 8.115933e+000 2.000000e+000
      vertex   -2.810311e+001 7.874005e+000 4.000000e+000
      vertex   -2.796557e+001 8.115933e+000 4.000000e+000
    endloop
  endfacet
  facet normal -8.273040e-001 5.617544e-001 4.986707e-016
    outer loop
      vertex   -2.780923e+001 8.346168e+000 2.000000e+000
      vertex   -2.796557e+001 8.115933e+000 4.000000e+000
      vertex   -2.780923e+001 8.346168e+000 4.000000e+000
    endloop
  endfacet
  facet normal -7.800573e-001 6.257081e-001 5.485378e-016
    outer loop
      vertex   -2.763510e+001 8.563254e+000 2.000000e+000
      vertex   -2.780923e+001 8.346168e+000 4.000000e+000
      vertex   -2.763510e+001 8.563254e+000 4.000000e+000
    endloop
  endfacet
  facet normal -7.278788e-001 6.857058e-001 -6.856723e-016
    outer loop
      vertex   -2.744427e+001 8.765820e+000 2.000000e+000
      vertex   -2.763510e+001 8.563254e+000 4.000000e+000
      vertex   -2.744427e+001 8.765820e+000 4.000000e+000
    endloop
  endfacet
  facet normal -6.710984e-001 7.413683e-001 -5.360711e-016
    outer loop
      vertex   -2.723795e+001 8.952583e+000 2.000000e+000
      vertex   -2.744427e+001 8.765820e+000 4.000000e+000
      vertex   -2.723795e+001 8.952583e+000 4.000000e+000
    endloop
  endfacet
  facet normal -6.100751e-001 7.923436e-001 7.106058e-016
    outer loop
      vertex   -2.701745e+001 9.122365e+000 2.000000e+000
      vertex   -2.723795e+001 8.952583e+000 4.000000e+000
      vertex   -2.701745e+001 9.122365e+000 4.000000e+000
    endloop
  endfacet
  facet normal -5.451948e-001 8.383094e-001 0.000000e+000
    outer loop
      vertex   -2.678415e+001 9.274090e+000 2.000000e+000
      vertex   -2.701745e+001 9.122365e+000 4.000000e+000
      vertex   -2.678415e+001 9.274090e+000 4.000000e+000
    endloop
  endfacet
  facet normal -4.768675e-001 8.789752e-001 7.854064e-016
    outer loop
      vertex   -2.653953e+001 9.406800e+000 2.000000e+000
      vertex   -2.678415e+001 9.274090e+000 4.000000e+000
      vertex   -2.653953e+001 9.406800e+000 4.000000e+000
    endloop
  endfacet
  facet normal -4.055253e-001 9.140838e-001 8.103400e-016
    outer loop
      vertex   -2.628515e+001 9.519656e+000 2.000000e+000
      vertex   -2.653953e+001 9.406800e+000 4.000000e+000
      vertex   -2.628515e+001 9.519656e+000 4.000000e+000
    endloop
  endfacet
  facet normal -3.316193e-001 9.434133e-001 -5.921715e-016
    outer loop
      vertex   -2.602260e+001 9.611944e+000 2.000000e+000
      vertex   -2.628515e+001 9.519656e+000 4.000000e+000
      vertex   -2.602260e+001 9.611944e+000 4.000000e+000
    endloop
  endfacet
  facet normal -2.556166e-001 9.667782e-001 -4.550371e-016
    outer loop
      vertex   -2.575355e+001 9.683081e+000 2.000000e+000
      vertex   -2.602260e+001 9.611944e+000 4.000000e+000
      vertex   -2.575355e+001 9.683081e+000 4.000000e+000
    endloop
  endfacet
  facet normal -1.779979e-001 9.840309e-001 -3.179026e-016
    outer loop
      vertex   -2.547970e+001 9.732617e+000 2.000000e+000
      vertex   -2.575355e+001 9.683081e+000 4.000000e+000
      vertex   -2.547970e+001 9.732617e+000 4.000000e+000
    endloop
  endfacet
  facet normal -9.925380e-002 9.950622e-001 0.000000e+000
    outer loop
      vertex   -2.520278e+001 9.760239e+000 2.000000e+000
      vertex   -2.547970e+001 9.732617e+000 4.000000e+000
      vertex   -2.520278e+001 9.760239e+000 4.000000e+000
    endloop
  endfacet
  facet normal -1.988219e-002 9.998023e-001 0.000000e+000
    outer loop
      vertex   -2.492454e+001 9.765772e+000 2.000000e+000
      vertex   -2.520278e+001 9.760239e+000 4.000000e+000
      vertex   -2.492454e+001 9.765772e+000 4.000000e+000
    endloop
  endfacet
  facet normal 5.961513e-002 9.982214e-001 -7.807314e-016
    outer loop
      vertex   -2.464674e+001 9.749182e+000 2.000000e+000
      vertex   -2.492454e+001 9.765772e+000 4.000000e+000
      vertex   -2.464674e+001 9.749182e+000 4.000000e+000
    endloop
  endfacet
  facet normal 1.387355e-001 9.903295e-001 0.000000e+000
    outer loop
      vertex   -2.437113e+001 9.710572e+000 2.000000e+000
      vertex   -2.464674e+001 9.749182e+000 4.000000e+000
      vertex   -2.437113e+001 9.710572e+000 4.000000e+000
    endloop
  endfacet
  facet normal 2.169788e-001 9.761763e-001 3.864698e-016
    outer loop
      vertex   -2.409947e+001 9.650188e+000 2.000000e+000
      vertex   -2.437113e+001 9.710572e+000 4.000000e+000
      vertex   -2.409947e+001 9.650188e+000 4.000000e+000
    endloop
  endfacet
  facet normal 2.938503e-001 9.558515e-001 -3.303694e-016
    outer loop
      vertex   -2.383346e+001 9.568411e+000 2.000000e+000
      vertex   -2.409947e+001 9.650188e+000 4.000000e+000
      vertex   -2.383346e+001 9.568411e+000 4.000000e+000
    endloop
  endfacet
  facet normal 3.688639e-001 9.294834e-001 6.545054e-016
    outer loop
      vertex   -2.357479e+001 9.465757e+000 2.000000e+000
      vertex   -2.383346e+001 9.568411e+000 4.000000e+000
      vertex   -2.357479e+001 9.465757e+000 4.000000e+000
    endloop
  endfacet
  facet normal 4.415455e-001 8.972389e-001 7.854064e-016
    outer loop
      vertex   -2.332509e+001 9.342877e+000 2.000000e+000
      vertex   -2.357479e+001 9.465757e+000 4.000000e+000
      vertex   -2.332509e+001 9.342877e+000 4.000000e+000
    endloop
  endfacet
  facet normal 5.114355e-001 8.593217e-001 -7.604729e-016
    outer loop
      vertex   -2.308594e+001 9.200547e+000 2.000000e+000
      vertex   -2.332509e+001 9.342877e+000 4.000000e+000
      vertex   -2.308594e+001 9.200547e+000 4.000000e+000
    endloop
  endfacet
  facet normal 5.780920e-001 8.159716e-001 1.022275e-015
    outer loop
      vertex   -2.285886e+001 9.039667e+000 2.000000e+000
      vertex   -2.308594e+001 9.200547e+000 4.000000e+000
      vertex   -2.285886e+001 9.039667e+000 4.000000e+000
    endloop
  endfacet
  facet normal 6.410936e-001 7.674627e-001 -6.732055e-016
    outer loop
      vertex   -2.264528e+001 8.861253e+000 2.000000e+000
      vertex   -2.285886e+001 9.039667e+000 4.000000e+000
      vertex   -2.264528e+001 8.861253e+000 4.000000e+000
    endloop
  endfacet
  facet normal 7.000421e-001 7.141016e-001 -6.358052e-016
    outer loop
      vertex   -2.244655e+001 8.666434e+000 2.000000e+000
      vertex   -2.264528e+001 8.861253e+000 4.000000e+000
      vertex   -2.244655e+001 8.666434e+000 4.000000e+000
    endloop
  endfacet
  facet normal 7.545646e-001 6.562257e-001 1.745348e-016
    outer loop
      vertex   -2.226392e+001 8.456442e+000 2.000000e+000
      vertex   -2.244655e+001 8.666434e+000 4.000000e+000
      vertex   -2.226392e+001 8.456442e+000 4.000000e+000
    endloop
  endfacet
  facet normal 8.043166e-001 5.942010e-001 -5.360711e-016
    outer loop
      vertex   -2.209856e+001 8.232605e+000 2.000000e+000
      vertex   -2.226392e+001 8.456442e+000 4.000000e+000
      vertex   -2.209856e+001 8.232605e+000 4.000000e+000
    endloop
  endfacet
  facet normal 8.489834e-001 5.284196e-001 -4.612704e-016
    outer loop
      vertex   -2.195150e+001 7.996336e+000 2.000000e+000
      vertex   -2.209856e+001 8.232605e+000 4.000000e+000
      vertex   -2.195150e+001 7.996336e+000 4.000000e+000
    endloop
  endfacet
  facet normal 8.882826e-001 4.592973e-001 -4.114034e-016
    outer loop
      vertex   -2.182368e+001 7.749131e+000 2.000000e+000
      vertex   -2.195150e+001 7.996336e+000 4.000000e+000
      vertex   -2.182368e+001 7.749131e+000 4.000000e+000
    endloop
  endfacet
  facet normal 9.219659e-001 3.872712e-001 -3.428361e-016
    outer loop
      vertex   -2.171591e+001 7.492552e+000 2.000000e+000
      vertex   -2.182368e+001 7.749131e+000 4.000000e+000
      vertex   -2.171591e+001 7.492552e+000 4.000000e+000
    endloop
  endfacet
  facet normal 9.498201e-001 3.127966e-001 -1.433678e-016
    outer loop
      vertex   -2.162886e+001 7.228221e+000 2.000000e+000
      vertex   -2.171591e+001 7.492552e+000 4.000000e+000
      vertex   -2.162886e+001 7.228221e+000 4.000000e+000
    endloop
  endfacet
  facet normal 9.716693e-001 2.363444e-001 -1.059675e-016
    outer loop
      vertex   -2.156308e+001 6.957810e+000 2.000000e+000
      vertex   -2.162886e+001 7.228221e+000 4.000000e+000
      vertex   -2.156308e+001 6.957810e+000 4.000000e+000
    endloop
  endfacet
  facet normal 9.873753e-001 1.583980e-001 -1.402511e-016
    outer loop
      vertex   -2.151900e+001 6.683028e+000 2.000000e+000
      vertex   -2.156308e+001 6.957810e+000 4.000000e+000
      vertex   -2.151900e+001 6.683028e+000 4.000000e+000
    endloop
  endfacet
  facet normal 9.968388e-001 7.945017e-002 -3.428361e-017
    outer loop
      vertex   -2.149689e+001 6.405612e+000 2.000000e+000
      vertex   -2.151900e+001 6.683028e+000 4.000000e+000
      vertex   -2.149689e+001 6.405612e+000 4.000000e+000
    endloop
  endfacet
  facet normal 1.000000e+000 0.000000e+000 -0.000000e+000
    outer loop
      vertex   -2.149689e+001 6.127316e+000 2.000000e+000
      vertex   -2.149689e+001 6.405612e+000 4.000000e+000
      vertex   -2.149689e+001 6.127316e+000 4.000000e+000
    endloop
  endfacet
  facet normal 9.968388e-001 -7.945017e-002 7.012557e-017
    outer loop
      vertex   -2.151900e+001 5.849900e+000 2.000000e+000
      vertex   -2.149689e+001 6.127316e+000 4.000000e+000
      vertex   -2.151900e+001 5.849900e+000 4.000000e+000
    endloop
  endfacet
  facet normal 9.873753e-001 -1.583980e-001 7.168392e-017
    outer loop
      vertex   -2.156308e+001 5.575118e+000 2.000000e+000
      vertex   -2.151900e+001 5.849900e+000 4.000000e+000
      vertex   -2.156308e+001 5.575118e+000 4.000000e+000
    endloop
  endfacet
  facet normal 9.716693e-001 -2.363444e-001 1.059675e-016
    outer loop
      vertex   -2.162886e+001 5.304707e+000 2.000000e+000
      vertex   -2.156308e+001 5.575118e+000 4.000000e+000
      vertex   -2.162886e+001 5.304707e+000 4.000000e+000
    endloop
  endfacet
  facet normal 9.498201e-001 -3.127966e-001 2.805023e-016
    outer loop
      vertex   -2.171591e+001 5.040376e+000 2.000000e+000
      vertex   -2.162886e+001 5.304707e+000 4.000000e+000
      vertex   -2.171591e+001 5.040376e+000 4.000000e+000
    endloop
  endfacet
  facet normal 9.219659e-001 -3.872712e-001 3.428361e-016
    outer loop
      vertex   -2.182368e+001 4.783797e+000 2.000000e+000
      vertex   -2.171591e+001 5.040376e+000 4.000000e+000
      vertex   -2.182368e+001 4.783797e+000 4.000000e+000
    endloop
  endfacet
  facet normal 8.882826e-001 -4.592973e-001 4.114034e-016
    outer loop
      vertex   -2.195150e+001 4.536592e+000 2.000000e+000
      vertex   -2.182368e+001 4.783797e+000 4.000000e+000
      vertex   -2.195150e+001 4.536592e+000 4.000000e+000
    endloop
  endfacet
  facet normal 8.489834e-001 -5.284196e-001 2.244018e-016
    outer loop
      vertex   -2.209856e+001 4.300324e+000 2.000000e+000
      vertex   -2.195150e+001 4.536592e+000 4.000000e+000
      vertex   -2.209856e+001 4.300324e+000 4.000000e+000
    endloop
  endfacet
  facet normal 8.043166e-001 -5.942010e-001 -6.358052e-016
    outer loop
      vertex   -2.226392e+001 4.076486e+000 2.000000e+000
      vertex   -2.209856e+001 4.300324e+000 4.000000e+000
      vertex   -2.226392e+001 4.076486e+000 4.000000e+000
    endloop
  endfacet
  facet normal 7.545646e-001 -6.562257e-001 4.363369e-016
    outer loop
      vertex   -2.244655e+001 3.866494e+000 2.000000e+000
      vertex   -2.226392e+001 4.076486e+000 4.000000e+000
      vertex   -2.244655e+001 3.866494e+000 4.000000e+000
    endloop
  endfacet
  facet normal 7.000421e-001 -7.141016e-001 3.241360e-016
    outer loop
      vertex   -2.264528e+001 3.671675e+000 2.000000e+000
      vertex   -2.244655e+001 3.866494e+000 4.000000e+000
      vertex   -2.264528e+001 3.671675e+000 4.000000e+000
    endloop
  endfacet
  facet normal 6.410936e-001 -7.674627e-001 -7.978732e-016
    outer loop
      vertex   -2.285886e+001 3.493262e+000 2.000000e+000
      vertex   -2.264528e+001 3.671675e+000 4.000000e+000
      vertex   -2.285886e+001 3.493262e+000 4.000000e+000
    endloop
  endfacet
  facet normal 5.780920e-001 -8.159716e-001 7.230726e-016
    outer loop
      vertex   -2.308594e+001 3.332381e+000 2.000000e+000
      vertex   -2.285886e+001 3.493262e+000 4.000000e+000
      vertex   -2.308594e+001 3.332381e+000 4.000000e+000
    endloop
  endfacet
  facet normal 5.114355e-001 -8.593217e-001 -5.236043e-016
    outer loop
      vertex   -2.332509e+001 3.190051e+000 2.000000e+000
      vertex   -2.308594e+001 3.332381e+000 4.000000e+000
      vertex   -2.332509e+001 3.190051e+000 4.000000e+000
    endloop
  endfacet
  facet normal 4.415455e-001 -8.972389e-001 -7.854064e-016
    outer loop
      vertex   -2.357479e+001 3.067171e+000 2.000000e+000
      vertex   -2.332509e+001 3.190051e+000 4.000000e+000
      vertex   -2.357479e+001 3.067171e+000 4.000000e+000
    endloop
  endfacet
  facet normal 3.688639e-001 -9.294834e-001 -3.740031e-017
    outer loop
      vertex   -2.383346e+001 2.964518e+000 2.000000e+000
      vertex   -2.357479e+001 3.067171e+000 4.000000e+000
      vertex   -2.383346e+001 2.964518e+000 4.000000e+000
    endloop
  endfacet
  facet normal 2.938503e-001 -9.558515e-001 -3.054358e-016
    outer loop
      vertex   -2.409947e+001 2.882740e+000 2.000000e+000
      vertex   -2.383346e+001 2.964518e+000 4.000000e+000
      vertex   -2.409947e+001 2.882740e+000 4.000000e+000
    endloop
  endfacet
  facet normal 2.169788e-001 -9.761763e-001 0.000000e+000
    outer loop
      vertex   -2.437113e+001 2.822356e+000 2.000000e+000
      vertex   -2.409947e+001 2.882740e+000 4.000000e+000
      vertex   -2.437113e+001 2.822356e+000 4.000000e+000
    endloop
  endfacet
  facet normal 1.387355e-001 -9.903295e-001 -2.805023e-017
    outer loop
      vertex   -2.464674e+001 2.783747e+000 2.000000e+000
      vertex   -2.437113e+001 2.822356e+000 4.000000e+000
      vertex   -2.464674e+001 2.783747e+000 4.000000e+000
    endloop
  endfacet
  facet normal 5.961513e-002 -9.982214e-001 0.000000e+000
    outer loop
      vertex   -2.492454e+001 2.767156e+000 2.000000e+000
      vertex   -2.464674e+001 2.783747e+000 4.000000e+000
      vertex   -2.492454e+001 2.767156e+000 4.000000e+000
    endloop
  endfacet
  facet normal -1.988219e-002 -9.998023e-001 0.000000e+000
    outer loop
      vertex   -2.520278e+001 2.772689e+000 2.000000e+000
      vertex   -2.492454e+001 2.767156e+000 4.000000e+000
      vertex   -2.520278e+001 2.772689e+000 4.000000e+000
    endloop
  endfacet
  facet normal -9.925380e-002 -9.950622e-001 1.760931e-016
    outer loop
      vertex   -2.547970e+001 2.800311e+000 2.000000e+000
      vertex   -2.520278e+001 2.772689e+000 4.000000e+000
      vertex   -2.547970e+001 2.800311e+000 4.000000e+000
    endloop
  endfacet
  facet normal -1.779979e-001 -9.840309e-001 9.661746e-017
    outer loop
      vertex   -2.575355e+001 2.849847e+000 2.000000e+000
      vertex   -2.547970e+001 2.800311e+000 4.000000e+000
      vertex   -2.575355e+001 2.849847e+000 4.000000e+000
    endloop
  endfacet
  facet normal -2.556166e-001 -9.667782e-001 4.550371e-016
    outer loop
      vertex   -2.602260e+001 2.920984e+000 2.000000e+000
      vertex   -2.575355e+001 2.849847e+000 4.000000e+000
      vertex   -2.602260e+001 2.920984e+000 4.000000e+000
    endloop
  endfacet
  facet normal -3.316193e-001 -9.434133e-001 -4.176368e-016
    outer loop
      vertex   -2.628515e+001 3.013272e+000 2.000000e+000
      vertex   -2.602260e+001 2.920984e+000 4.000000e+000
      vertex   -2.628515e+001 3.013272e+000 4.000000e+000
    endloop
  endfacet
  facet normal -4.055253e-001 -9.140838e-001 -6.046383e-016
    outer loop
      vertex   -2.653953e+001 3.126128e+000 2.000000e+000
      vertex   -2.628515e+001 3.013272e+000 4.000000e+000
      vertex   -2.653953e+001 3.126128e+000 4.000000e+000
    endloop
  endfacet
  facet normal -4.768675e-001 -8.789752e-001 0.000000e+000
    outer loop
      vertex   -2.678415e+001 3.258838e+000 2.000000e+000
      vertex   -2.653953e+001 3.126128e+000 4.000000e+000
      vertex   -2.678415e+001 3.258838e+000 4.000000e+000
    endloop
  endfacet
  facet normal -5.451948e-001 -8.383094e-001 -5.485378e-016
    outer loop
      vertex   -2.701745e+001 3.410563e+000 2.000000e+000
      vertex   -2.678415e+001 3.258838e+000 4.000000e+000
      vertex   -2.701745e+001 3.410563e+000 4.000000e+000
    endloop
  endfacet
  facet normal -6.100751e-001 -7.923436e-001 1.994683e-016
    outer loop
      vertex   -2.723795e+001 3.580345e+000 2.000000e+000
      vertex   -2.701745e+001 3.410563e+000 4.000000e+000
      vertex   -2.723795e+001 3.580345e+000 4.000000e+000
    endloop
  endfacet
  facet normal -6.710984e-001 -7.413683e-001 5.360711e-016
    outer loop
      vertex   -2.744427e+001 3.767108e+000 2.000000e+000
      vertex   -2.723795e+001 3.580345e+000 4.000000e+000
      vertex   -2.744427e+001 3.767108e+000 4.000000e+000
    endloop
  endfacet
  facet normal -7.278788e-001 -6.857058e-001 -4.612704e-016
    outer loop
      vertex   -2.763510e+001 3.969674e+000 2.000000e+000
      vertex   -2.744427e+001 3.767108e+000 4.000000e+000
      vertex   -2.763510e+001 3.969674e+000 4.000000e+000
    endloop
  endfacet
  facet normal -7.800573e-001 -6.257081e-001 -5.485378e-016
    outer loop
      vertex   -2.780923e+001 4.186760e+000 2.000000e+000
      vertex   -2.763510e+001 3.969674e+000 4.000000e+000
      vertex   -2.780923e+001 4.186760e+000 4.000000e+000
    endloop
  endfacet
  facet normal -8.273040e-001 -5.617544e-001 -9.973415e-016
    outer loop
      vertex   -2.796557e+001 4.416996e+000 2.000000e+000
      vertex   -2.780923e+001 4.186760e+000 4.000000e+000
      vertex   -2.796557e+001 4.416996e+000 4.000000e+000
    endloop
  endfacet
  facet normal -8.693203e-001 -4.942492e-001 0.000000e+000
    outer loop
      vertex   -2.810311e+001 4.658924e+000 2.000000e+000
      vertex   -2.796557e+001 4.416996e+000 4.000000e+000
      vertex   -2.810311e+001 4.658924e+000 4.000000e+000
    endloop
  endfacet
  facet normal -9.058404e-001 -4.236191e-001 -1.870015e-016
    outer loop
      vertex   -2.822101e+001 4.911015e+000 2.000000e+000
      vertex   -2.810311e+001 4.658924e+000 4.000000e+000
      vertex   -2.822101e+001 4.911015e+000 4.000000e+000
    endloop
  endfacet
  facet normal -9.366335e-001 -3.503108e-001 -4.675038e-016
    outer loop
      vertex   -2.831850e+001 5.171676e+000 2.000000e+000
      vertex   -2.822101e+001 4.911015e+000 4.000000e+000
      vertex   -2.831850e+001 5.171676e+000 4.000000e+000
    endloop
  endfacet
  facet normal -9.615049e-001 -2.747878e-001 0.000000e+000
    outer loop
      vertex   -2.839497e+001 5.439259e+000 2.000000e+000
      vertex   -2.831850e+001 5.171676e+000 4.000000e+000
      vertex   -2.839497e+001 5.439259e+000 4.000000e+000
    endloop
  endfacet
  facet normal -9.802974e-001 -1.975274e-001 -1.776515e-016
    outer loop
      vertex   -2.844994e+001 5.712071e+000 2.000000e+000
      vertex   -2.839497e+001 5.439259e+000 4.000000e+000
      vertex   -2.844994e+001 5.712071e+000 4.000000e+000
    endloop
  endfacet
  facet normal -9.928921e-001 -1.190182e-001 -5.298377e-017
    outer loop
      vertex   -2.848306e+001 5.988388e+000 2.000000e+000
      vertex   -2.844994e+001 5.712071e+000 4.000000e+000
      vertex   -2.848306e+001 5.988388e+000 4.000000e+000
    endloop
  endfacet
  facet normal -9.992094e-001 -3.975652e-002 0.000000e+000
    outer loop
      vertex   -2.849413e+001 6.266464e+000 2.000000e+000
      vertex   -2.848306e+001 5.988388e+000 4.000000e+000
      vertex   -2.849413e+001 6.266464e+000 4.000000e+000
    endloop
  endfacet
  facet normal -9.992094e-001 3.975652e-002 0.000000e+000
    outer loop
      vertex   -2.848306e+001 6.544540e+000 2.000000e+000
      vertex   -2.849413e+001 6.266464e+000 2.000000e+000
      vertex   -2.849413e+001 6.266464e+000 4.000000e+000
    endloop
  endfacet
  facet normal -9.615049e-001 2.747878e-001 0.000000e+000
    outer loop
      vertex   -2.839497e+001 7.093670e+000 2.000000e+000
      vertex   -2.839497e+001 7.093670e+000 4.000000e+000
      vertex   -2.831850e+001 7.361252e+000 2.000000e+000
    endloop
  endfacet
  facet normal -9.366335e-001 3.503108e-001 4.667078e-016
    outer loop
      vertex   -2.831850e+001 7.361252e+000 2.000000e+000
      vertex   -2.831850e+001 7.361252e+000 4.000000e+000
      vertex   -2.822101e+001 7.621913e+000 2.000000e+000
    endloop
  endfacet
  facet normal -9.058404e-001 4.236191e-001 1.881247e-016
    outer loop
      vertex   -2.822101e+001 7.621913e+000 2.000000e+000
      vertex   -2.822101e+001 7.621913e+000 4.000000e+000
      vertex   -2.810311e+001 7.874005e+000 2.000000e+000
    endloop
  endfacet
  facet normal -8.693203e-001 4.942492e-001 0.000000e+000
    outer loop
      vertex   -2.810311e+001 7.874005e+000 2.000000e+000
      vertex   -2.810311e+001 7.874005e+000 4.000000e+000
      vertex   -2.796557e+001 8.115933e+000 2.000000e+000
    endloop
  endfacet
  facet normal -8.273040e-001 5.617544e-001 9.978763e-016
    outer loop
      vertex   -2.796557e+001 8.115933e+000 2.000000e+000
      vertex   -2.796557e+001 8.115933e+000 4.000000e+000
      vertex   -2.780923e+001 8.346168e+000 2.000000e+000
    endloop
  endfacet
  facet normal -7.800573e-001 6.257081e-001 5.557404e-016
    outer loop
      vertex   -2.780923e+001 8.346168e+000 2.000000e+000
      vertex   -2.780923e+001 8.346168e+000 4.000000e+000
      vertex   -2.763510e+001 8.563254e+000 2.000000e+000
    endloop
  endfacet
  facet normal -7.278788e-001 6.857058e-001 6.090291e-016
    outer loop
      vertex   -2.763510e+001 8.563254e+000 2.000000e+000
      vertex   -2.763510e+001 8.563254e+000 4.000000e+000
      vertex   -2.744427e+001 8.765820e+000 2.000000e+000
    endloop
  endfacet
  facet normal -6.710984e-001 7.413683e-001 -5.336430e-016
    outer loop
      vertex   -2.744427e+001 8.765820e+000 2.000000e+000
      vertex   -2.744427e+001 8.765820e+000 4.000000e+000
      vertex   -2.723795e+001 8.952583e+000 2.000000e+000
    endloop
  endfacet
  facet normal -6.100751e-001 7.923436e-001 -3.799687e-016
    outer loop
      vertex   -2.723795e+001 8.952583e+000 2.000000e+000
      vertex   -2.723795e+001 8.952583e+000 4.000000e+000
      vertex   -2.701745e+001 9.122365e+000 2.000000e+000
    endloop
  endfacet
  facet normal -5.451948e-001 8.383094e-001 7.445683e-016
    outer loop
      vertex   -2.701745e+001 9.122365e+000 2.000000e+000
      vertex   -2.701745e+001 9.122365e+000 4.000000e+000
      vertex   -2.678415e+001 9.274090e+000 2.000000e+000
    endloop
  endfacet
  facet normal -4.768675e-001 8.789752e-001 0.000000e+000
    outer loop
      vertex   -2.678415e+001 9.274090e+000 2.000000e+000
      vertex   -2.678415e+001 9.274090e+000 4.000000e+000
      vertex   -2.653953e+001 9.406800e+000 2.000000e+000
    endloop
  endfacet
  facet normal -4.055253e-001 9.140838e-001 8.118695e-016
    outer loop
      vertex   -2.653953e+001 9.406800e+000 2.000000e+000
      vertex   -2.653953e+001 9.406800e+000 4.000000e+000
      vertex   -2.628515e+001 9.519656e+000 2.000000e+000
    endloop
  endfacet
  facet normal -3.316193e-001 9.434133e-001 8.379193e-016
    outer loop
      vertex   -2.628515e+001 9.519656e+000 2.000000e+000
      vertex   -2.628515e+001 9.519656e+000 4.000000e+000
      vertex   -2.602260e+001 9.611944e+000 2.000000e+000
    endloop
  endfacet
  facet normal -2.556166e-001 9.667782e-001 -4.540664e-016
    outer loop
      vertex   -2.602260e+001 9.611944e+000 2.000000e+000
      vertex   -2.602260e+001 9.611944e+000 4.000000e+000
      vertex   -2.575355e+001 9.683081e+000 2.000000e+000
    endloop
  endfacet
  facet normal -1.779979e-001 9.840309e-001 -3.161878e-016
    outer loop
      vertex   -2.575355e+001 9.683081e+000 2.000000e+000
      vertex   -2.575355e+001 9.683081e+000 4.000000e+000
      vertex   -2.547970e+001 9.732617e+000 2.000000e+000
    endloop
  endfacet
  facet normal -9.925380e-002 9.950622e-001 -1.763102e-016
    outer loop
      vertex   -2.547970e+001 9.732617e+000 2.000000e+000
      vertex   -2.547970e+001 9.732617e+000 4.000000e+000
      vertex   -2.520278e+001 9.760239e+000 2.000000e+000
    endloop
  endfacet
  facet normal -1.988219e-002 9.998023e-001 0.000000e+000
    outer loop
      vertex   -2.520278e+001 9.760239e+000 2.000000e+000
      vertex   -2.520278e+001 9.760239e+000 4.000000e+000
      vertex   -2.492454e+001 9.765772e+000 2.000000e+000
    endloop
  endfacet
  facet normal 5.961513e-002 9.982214e-001 -0.000000e+000
    outer loop
      vertex   -2.492454e+001 9.765772e+000 2.000000e+000
      vertex   -2.492454e+001 9.765772e+000 4.000000e+000
      vertex   -2.464674e+001 9.749182e+000 2.000000e+000
    endloop
  endfacet
  facet normal 1.387355e-001 9.903295e-001 -6.331454e-016
    outer loop
      vertex   -2.464674e+001 9.749182e+000 2.000000e+000
      vertex   -2.464674e+001 9.749182e+000 4.000000e+000
      vertex   -2.437113e+001 9.710572e+000 2.000000e+000
    endloop
  endfacet
  facet normal 2.169788e-001 9.761763e-001 -0.000000e+000
    outer loop
      vertex   -2.437113e+001 9.710572e+000 2.000000e+000
      vertex   -2.437113e+001 9.710572e+000 4.000000e+000
      vertex   -2.409947e+001 9.650188e+000 2.000000e+000
    endloop
  endfacet
  facet normal 2.938503e-001 9.558515e-001 5.219829e-016
    outer loop
      vertex   -2.409947e+001 9.650188e+000 2.000000e+000
      vertex   -2.409947e+001 9.650188e+000 4.000000e+000
      vertex   -2.383346e+001 9.568411e+000 2.000000e+000
    endloop
  endfacet
  facet normal 3.688639e-001 9.294834e-001 -1.703131e-016
    outer loop
      vertex   -2.383346e+001 9.568411e+000 2.000000e+000
      vertex   -2.383346e+001 9.568411e+000 4.000000e+000
      vertex   -2.357479e+001 9.465757e+000 2.000000e+000
    endloop
  endfacet
  facet normal 4.415455e-001 8.972389e-001 7.843424e-016
    outer loop
      vertex   -2.357479e+001 9.465757e+000 2.000000e+000
      vertex   -2.357479e+001 9.465757e+000 4.000000e+000
      vertex   -2.332509e+001 9.342877e+000 2.000000e+000
    endloop
  endfacet
  facet normal 5.114355e-001 8.593217e-001 9.084919e-016
    outer loop
      vertex   -2.332509e+001 9.342877e+000 2.000000e+000
      vertex   -2.332509e+001 9.342877e+000 4.000000e+000
      vertex   -2.308594e+001 9.200547e+000 2.000000e+000
    endloop
  endfacet
  facet normal 5.780920e-001 8.159716e-001 -7.247284e-016
    outer loop
      vertex   -2.308594e+001 9.200547e+000 2.000000e+000
      vertex   -2.308594e+001 9.200547e+000 4.000000e+000
      vertex   -2.285886e+001 9.039667e+000 2.000000e+000
    endloop
  endfacet
  facet normal 6.410936e-001 7.674627e-001 1.138811e-015
    outer loop
      vertex   -2.285886e+001 9.039667e+000 2.000000e+000
      vertex   -2.285886e+001 9.039667e+000 4.000000e+000
      vertex   -2.264528e+001 8.861253e+000 2.000000e+000
    endloop
  endfacet
  facet normal 7.000421e-001 7.141016e-001 -6.342496e-016
    outer loop
      vertex   -2.264528e+001 8.861253e+000 2.000000e+000
      vertex   -2.264528e+001 8.861253e+000 4.000000e+000
      vertex   -2.244655e+001 8.666434e+000 2.000000e+000
    endloop
  endfacet
  facet normal 7.545646e-001 6.562257e-001 -5.828455e-016
    outer loop
      vertex   -2.244655e+001 8.666434e+000 2.000000e+000
      vertex   -2.244655e+001 8.666434e+000 4.000000e+000
      vertex   -2.226392e+001 8.456442e+000 2.000000e+000
    endloop
  endfacet
  facet normal 8.043166e-001 5.942010e-001 3.732402e-016
    outer loop
      vertex   -2.226392e+001 8.456442e+000 2.000000e+000
      vertex   -2.226392e+001 8.456442e+000 4.000000e+000
      vertex   -2.209856e+001 8.232605e+000 2.000000e+000
    endloop
  endfacet
  facet normal 8.489834e-001 5.284196e-001 -4.693309e-016
    outer loop
      vertex   -2.209856e+001 8.232605e+000 2.000000e+000
      vertex   -2.209856e+001 8.232605e+000 4.000000e+000
      vertex   -2.195150e+001 7.996336e+000 2.000000e+000
    endloop
  endfacet
  facet normal 8.882826e-001 4.592973e-001 -4.079379e-016
    outer loop
      vertex   -2.195150e+001 7.996336e+000 2.000000e+000
      vertex   -2.195150e+001 7.996336e+000 4.000000e+000
      vertex   -2.182368e+001 7.749131e+000 2.000000e+000
    endloop
  endfacet
  facet normal 9.219659e-001 3.872712e-001 -3.439659e-016
    outer loop
      vertex   -2.182368e+001 7.749131e+000 2.000000e+000
      vertex   -2.182368e+001 7.749131e+000 4.000000e+000
      vertex   -2.171591e+001 7.492552e+000 2.000000e+000
    endloop
  endfacet
  facet normal 9.498201e-001 3.127966e-001 -2.778192e-016
    outer loop
      vertex   -2.171591e+001 7.492552e+000 2.000000e+000
      vertex   -2.171591e+001 7.492552e+000 4.000000e+000
      vertex   -2.162886e+001 7.228221e+000 2.000000e+000
    endloop
  endfacet
  facet normal 9.716693e-001 2.363444e-001 -1.049580e-016
    outer loop
      vertex   -2.162886e+001 7.228221e+000 2.000000e+000
      vertex   -2.162886e+001 7.228221e+000 4.000000e+000
      vertex   -2.156308e+001 6.957810e+000 2.000000e+000
    endloop
  endfacet
  facet normal 9.873753e-001 1.583980e-001 -7.034285e-017
    outer loop
      vertex   -2.156308e+001 6.957810e+000 2.000000e+000
      vertex   -2.156308e+001 6.957810e+000 4.000000e+000
      vertex   -2.151900e+001 6.683028e+000 2.000000e+000
    endloop
  endfacet
  facet normal 9.968388e-001 7.945017e-002 -7.056592e-017
    outer loop
      vertex   -2.151900e+001 6.683028e+000 2.000000e+000
      vertex   -2.151900e+001 6.683028e+000 4.000000e+000
      vertex   -2.149689e+001 6.405612e+000 2.000000e+000
    endloop
  endfacet
  facet normal 1.000000e+000 0.000000e+000 -0.000000e+000
    outer loop
      vertex   -2.149689e+001 6.405612e+000 2.000000e+000
      vertex   -2.149689e+001 6.405612e+000 4.000000e+000
      vertex   -2.149689e+001 6.127316e+000 2.000000e+000
    endloop
  endfacet
  facet normal 9.968388e-001 -7.945017e-002 3.528296e-017
    outer loop
      vertex   -2.149689e+001 6.127316e+000 2.000000e+000
      vertex   -2.149689e+001 6.127316e+000 4.000000e+000
      vertex   -2.151900e+001 5.849900e+000 2.000000e+000
    endloop
  endfacet
  facet normal 9.873753e-001 -1.583980e-001 1.406857e-016
    outer loop
      vertex   -2.151900e+001 5.849900e+000 2.000000e+000
      vertex   -2.151900e+001 5.849900e+000 4.000000e+000
      vertex   -2.156308e+001 5.575118e+000 2.000000e+000
    endloop
  endfacet
  facet normal 9.716693e-001 -2.363444e-001 1.049580e-016
    outer loop
      vertex   -2.156308e+001 5.575118e+000 2.000000e+000
      vertex   -2.156308e+001 5.575118e+000 4.000000e+000
      vertex   -2.162886e+001 5.304707e+000 2.000000e+000
    endloop
  endfacet
  facet normal 9.498201e-001 -3.127966e-001 1.389096e-016
    outer loop
      vertex   -2.162886e+001 5.304707e+000 2.000000e+000
      vertex   -2.162886e+001 5.304707e+000 4.000000e+000
      vertex   -2.171591e+001 5.040376e+000 2.000000e+000
    endloop
  endfacet
  facet normal 9.219659e-001 -3.872712e-001 3.439659e-016
    outer loop
      vertex   -2.171591e+001 5.040376e+000 2.000000e+000
      vertex   -2.171591e+001 5.040376e+000 4.000000e+000
      vertex   -2.182368e+001 4.783797e+000 2.000000e+000
    endloop
  endfacet
  facet normal 8.882826e-001 -4.592973e-001 4.079379e-016
    outer loop
      vertex   -2.182368e+001 4.783797e+000 2.000000e+000
      vertex   -2.182368e+001 4.783797e+000 4.000000e+000
      vertex   -2.195150e+001 4.536592e+000 2.000000e+000
    endloop
  endfacet
  facet normal 8.489834e-001 -5.284196e-001 4.693309e-016
    outer loop
      vertex   -2.195150e+001 4.536592e+000 2.000000e+000
      vertex   -2.195150e+001 4.536592e+000 4.000000e+000
      vertex   -2.209856e+001 4.300324e+000 2.000000e+000
    endloop
  endfacet
  facet normal 8.043166e-001 -5.942010e-001 2.638783e-016
    outer loop
      vertex   -2.209856e+001 4.300324e+000 2.000000e+000
      vertex   -2.209856e+001 4.300324e+000 4.000000e+000
      vertex   -2.226392e+001 4.076486e+000 2.000000e+000
    endloop
  endfacet
  facet normal 7.545646e-001 -6.562257e-001 -4.661077e-016
    outer loop
      vertex   -2.226392e+001 4.076486e+000 2.000000e+000
      vertex   -2.226392e+001 4.076486e+000 4.000000e+000
      vertex   -2.244655e+001 3.866494e+000 2.000000e+000
    endloop
  endfacet
  facet normal 7.000421e-001 -7.141016e-001 4.756872e-016
    outer loop
      vertex   -2.244655e+001 3.866494e+000 2.000000e+000
      vertex   -2.244655e+001 3.866494e+000 4.000000e+000
      vertex   -2.264528e+001 3.671675e+000 2.000000e+000
    endloop
  endfacet
  facet normal 6.410936e-001 -7.674627e-001 3.408219e-016
    outer loop
      vertex   -2.264528e+001 3.671675e+000 2.000000e+000
      vertex   -2.264528e+001 3.671675e+000 4.000000e+000
      vertex   -2.285886e+001 3.493262e+000 2.000000e+000
    endloop
  endfacet
  facet normal 5.780920e-001 -8.159716e-001 -6.645335e-016
    outer loop
      vertex   -2.285886e+001 3.493262e+000 2.000000e+000
      vertex   -2.285886e+001 3.493262e+000 4.000000e+000
      vertex   -2.308594e+001 3.332381e+000 2.000000e+000
    endloop
  endfacet
  facet normal 5.114355e-001 -8.593217e-001 7.632310e-016
    outer loop
      vertex   -2.308594e+001 3.332381e+000 2.000000e+000
      vertex   -2.308594e+001 3.332381e+000 4.000000e+000
      vertex   -2.332509e+001 3.190051e+000 2.000000e+000
    endloop
  endfacet
  facet normal 4.415455e-001 -8.972389e-001 -3.858883e-016
    outer loop
      vertex   -2.332509e+001 3.190051e+000 2.000000e+000
      vertex   -2.332509e+001 3.190051e+000 4.000000e+000
      vertex   -2.357479e+001 3.067171e+000 2.000000e+000
    endloop
  endfacet
  facet normal 3.688639e-001 -9.294834e-001 -6.552340e-016
    outer loop
      vertex   -2.357479e+001 3.067171e+000 2.000000e+000
      vertex   -2.357479e+001 3.067171e+000 4.000000e+000
      vertex   -2.383346e+001 2.964518e+000 2.000000e+000
    endloop
  endfacet
  facet normal 2.938503e-001 -9.558515e-001 1.147420e-016
    outer loop
      vertex   -2.383346e+001 2.964518e+000 2.000000e+000
      vertex   -2.383346e+001 2.964518e+000 4.000000e+000
      vertex   -2.409947e+001 2.882740e+000 2.000000e+000
    endloop
  endfacet
  facet normal 2.169788e-001 -9.761763e-001 -1.686771e-016
    outer loop
      vertex   -2.409947e+001 2.882740e+000 2.000000e+000
      vertex   -2.409947e+001 2.882740e+000 4.000000e+000
      vertex   -2.437113e+001 2.822356e+000 2.000000e+000
    endloop
  endfacet
  facet normal 1.387355e-001 -9.903295e-001 0.000000e+000
    outer loop
      vertex   -2.437113e+001 2.822356e+000 2.000000e+000
      vertex   -2.437113e+001 2.822356e+000 4.000000e+000
      vertex   -2.464674e+001 2.783747e+000 2.000000e+000
    endloop
  endfacet
  facet normal 5.961513e-002 -9.982214e-001 1.157519e-016
    outer loop
      vertex   -2.464674e+001 2.783747e+000 2.000000e+000
      vertex   -2.464674e+001 2.783747e+000 4.000000e+000
      vertex   -2.492454e+001 2.767156e+000 2.000000e+000
    endloop
  endfacet
  facet normal -1.988219e-002 -9.998023e-001 0.000000e+000
    outer loop
      vertex   -2.492454e+001 2.767156e+000 2.000000e+000
      vertex   -2.492454e+001 2.767156e+000 4.000000e+000
      vertex   -2.520278e+001 2.772689e+000 2.000000e+000
    endloop
  endfacet
  facet normal -9.925380e-002 -9.950622e-001 0.000000e+000
    outer loop
      vertex   -2.520278e+001 2.772689e+000 2.000000e+000
      vertex   -2.520278e+001 2.772689e+000 4.000000e+000
      vertex   -2.547970e+001 2.800311e+000 2.000000e+000
    endloop
  endfacet
  facet normal -1.779979e-001 -9.840309e-001 3.161878e-016
    outer loop
      vertex   -2.547970e+001 2.800311e+000 2.000000e+000
      vertex   -2.547970e+001 2.800311e+000 4.000000e+000
      vertex   -2.575355e+001 2.849847e+000 2.000000e+000
    endloop
  endfacet
  facet normal -2.556166e-001 -9.667782e-001 2.393985e-016
    outer loop
      vertex   -2.575355e+001 2.849847e+000 2.000000e+000
      vertex   -2.575355e+001 2.849847e+000 4.000000e+000
      vertex   -2.602260e+001 2.920984e+000 2.000000e+000
    endloop
  endfacet
  facet normal -3.316193e-001 -9.434133e-001 5.890742e-016
    outer loop
      vertex   -2.602260e+001 2.920984e+000 2.000000e+000
      vertex   -2.602260e+001 2.920984e+000 4.000000e+000
      vertex   -2.628515e+001 3.013272e+000 2.000000e+000
    endloop
  endfacet
  facet normal -4.055253e-001 -9.140838e-001 -4.059348e-016
    outer loop
      vertex   -2.628515e+001 3.013272e+000 2.000000e+000
      vertex   -2.628515e+001 3.013272e+000 4.000000e+000
      vertex   -2.653953e+001 3.126128e+000 2.000000e+000
    endloop
  endfacet
  facet normal -4.768675e-001 -8.789752e-001 -5.855151e-016
    outer loop
      vertex   -2.653953e+001 3.126128e+000 2.000000e+000
      vertex   -2.653953e+001 3.126128e+000 4.000000e+000
      vertex   -2.678415e+001 3.258838e+000 2.000000e+000
    endloop
  endfacet
  facet normal -5.451948e-001 -8.383094e-001 0.000000e+000
    outer loop
      vertex   -2.678415e+001 3.258838e+000 2.000000e+000
      vertex   -2.678415e+001 3.258838e+000 4.000000e+000
      vertex   -2.701745e+001 3.410563e+000 2.000000e+000
    endloop
  endfacet
  facet normal -6.100751e-001 -7.923436e-001 -5.278068e-016
    outer loop
      vertex   -2.701745e+001 3.410563e+000 2.000000e+000
      vertex   -2.701745e+001 3.410563e+000 4.000000e+000
      vertex   -2.723795e+001 3.580345e+000 2.000000e+000
    endloop
  endfacet
  facet normal -6.710984e-001 -7.413683e-001 3.690262e-016
    outer loop
      vertex   -2.723795e+001 3.580345e+000 2.000000e+000
      vertex   -2.723795e+001 3.580345e+000 4.000000e+000
      vertex   -2.744427e+001 3.767108e+000 2.000000e+000
    endloop
  endfacet
  facet normal -7.278788e-001 -6.857058e-001 6.839434e-016
    outer loop
      vertex   -2.744427e+001 3.767108e+000 2.000000e+000
      vertex   -2.744427e+001 3.767108e+000 4.000000e+000
      vertex   -2.763510e+001 3.969674e+000 2.000000e+000
    endloop
  endfacet
  facet normal -7.800573e-001 -6.257081e-001 -4.168053e-016
    outer loop
      vertex   -2.763510e+001 3.969674e+000 2.000000e+000
      vertex   -2.763510e+001 3.969674e+000 4.000000e+000
      vertex   -2.780923e+001 4.186760e+000 2.000000e+000
    endloop
  endfacet
  facet normal -8.273040e-001 -5.617544e-001 -4.989382e-016
    outer loop
      vertex   -2.780923e+001 4.186760e+000 2.000000e+000
      vertex   -2.780923e+001 4.186760e+000 4.000000e+000
      vertex   -2.796557e+001 4.416996e+000 2.000000e+000
    endloop
  endfacet
  facet normal -8.693203e-001 -4.942492e-001 -8.779629e-016
    outer loop
      vertex   -2.796557e+001 4.416996e+000 2.000000e+000
      vertex   -2.796557e+001 4.416996e+000 4.000000e+000
      vertex   -2.810311e+001 4.658924e+000 2.000000e+000
    endloop
  endfacet
  facet normal -9.058404e-001 -4.236191e-001 0.000000e+000
    outer loop
      vertex   -2.810311e+001 4.658924e+000 2.000000e+000
      vertex   -2.810311e+001 4.658924e+000 4.000000e+000
      vertex   -2.822101e+001 4.911015e+000 2.000000e+000
    endloop
  endfacet
  facet normal -9.366335e-001 -3.503108e-001 -1.555693e-016
    outer loop
      vertex   -2.822101e+001 4.911015e+000 2.000000e+000
      vertex   -2.822101e+001 4.911015e+000 4.000000e+000
      vertex   -2.831850e+001 5.171676e+000 2.000000e+000
    endloop
  endfacet
  facet normal -9.615049e-001 -2.747878e-001 -3.660909e-016
    outer loop
      vertex   -2.831850e+001 5.171676e+000 2.000000e+000
      vertex   -2.831850e+001 5.171676e+000 4.000000e+000
      vertex   -2.839497e+001 5.439259e+000 2.000000e+000
    endloop
  endfacet
  facet normal -9.802974e-001 -1.975274e-001 0.000000e+000
    outer loop
      vertex   -2.839497e+001 5.439259e+000 2.000000e+000
      vertex   -2.839497e+001 5.439259e+000 4.000000e+000
      vertex   -2.844994e+001 5.712071e+000 2.000000e+000
    endloop
  endfacet
  facet normal -9.928921e-001 -1.190182e-001 -1.057094e-016
    outer loop
      vertex   -2.844994e+001 5.712071e+000 2.000000e+000
      vertex   -2.844994e+001 5.712071e+000 4.000000e+000
      vertex   -2.848306e+001 5.988388e+000 2.000000e+000
    endloop
  endfacet
  facet normal -9.992094e-001 -3.975652e-002 -1.765544e-017
    outer loop
      vertex   -2.848306e+001 5.988388e+000 2.000000e+000
      vertex   -2.848306e+001 5.988388e+000 4.000000e+000
      vertex   -2.849413e+001 6.266464e+000 2.000000e+000
    endloop
  endfacet
  facet normal 0.000000e+000 -0.000000e+000 1.000000e+000
    outer loop
      vertex   -2.848306e+001 5.988388e+000 4.000000e+000
      vertex   -2.149689e+001 6.127316e+000 4.000000e+000
      vertex   -2.849413e+001 6.266464e+000 4.000000e+000
    endloop
  endfacet
  facet normal -0.000000e+000 0.000000e+000 1.000000e+000
    outer loop
      vertex   -2.848306e+001 5.988388e+000 4.000000e+000
      vertex   -2.151900e+001 5.849900e+000 4.000000e+000
      vertex   -2.149689e+001 6.127316e+000 4.000000e+000
    endloop
  endfacet
  facet normal -0.000000e+000 0.000000e+000 1.000000e+000
    outer loop
      vertex   -2.848306e+001 5.988388e+000 4.000000e+000
      vertex   -2.844994e+001 5.712071e+000 4.000000e+000
      vertex   -2.151900e+001 5.849900e+000 4.000000e+000
    endloop
  endfacet
  facet normal 0.000000e+000 0.000000e+000 1.000000e+000
    outer loop
      vertex   -2.151900e+001 5.849900e+000 4.000000e+000
      vertex   -2.844994e+001 5.712071e+000 4.000000e+000
      vertex   -2.156308e+001 5.575118e+000 4.000000e+000
    endloop
  endfacet
  facet normal 0.000000e+000 0.000000e+000 1.000000e+000
    outer loop
      vertex   -2.156308e+001 5.575118e+000 4.000000e+000
      vertex   -2.844994e+001 5.712071e+000 4.000000e+000
      vertex   -2.839497e+001 5.439259e+000 4.000000e+000
    endloop
  endfacet
  facet normal 0.000000e+000 0.000000e+000 1.000000e+000
    outer loop
      vertex   -2.162886e+001 5.304707e+000 4.000000e+000
      vertex   -2.839497e+001 5.439259e+000 4.000000e+000
      vertex   -2.831850e+001 5.171676e+000 4.000000e+000
    endloop
  endfacet
  facet normal 0.000000e+000 0.000000e+000 1.000000e+000
    outer loop
      vertex   -2.171591e+001 5.040376e+000 4.000000e+000
      vertex   -2.831850e+001 5.171676e+000 4.000000e+000
      vertex   -2.822101e+001 4.911015e+000 4.000000e+000
    endloop
  endfacet
  facet normal 0.000000e+000 0.000000e+000 1.000000e+000
    outer loop
      vertex   -2.182368e+001 4.783797e+000 4.000000e+000
      vertex   -2.822101e+001 4.911015e+000 4.000000e+000
      vertex   -2.810311e+001 4.658924e+000 4.000000e+000
    endloop
  endfacet
  facet normal 0.000000e+000 0.000000e+000 1.000000e+000
    outer loop
      vertex   -2.195150e+001 4.536592e+000 4.000000e+000
      vertex   -2.810311e+001 4.658924e+000 4.000000e+000
      vertex   -2.796557e+001 4.416996e+000 4.000000e+000
    endloop
  endfacet
  facet normal 0.000000e+000 0.000000e+000 1.000000e+000
    outer loop
      vertex   -2.209856e+001 4.300324e+000 4.000000e+000
      vertex   -2.796557e+001 4.416996e+000 4.000000e+000
      vertex   -2.780923e+001 4.186760e+000 4.000000e+000
    endloop
  endfacet
  facet normal 0.000000e+000 0.000000e+000 1.000000e+000
    outer loop
      vertex   -2.226392e+001 4.076486e+000 4.000000e+000
      vertex   -2.780923e+001 4.186760e+000 4.000000e+000
      vertex   -2.763510e+001 3.969674e+000 4.000000e+000
    endloop
  endfacet
  facet normal 0.000000e+000 0.000000e+000 1.000000e+000
    outer loop
      vertex   -2.244655e+001 3.866494e+000 4.000000e+000
      vertex   -2.763510e+001 3.969674e+000 4.000000e+000
      vertex   -2.744427e+001 3.767108e+000 4.000000e+000
    endloop
  endfacet
  facet normal 0.000000e+000 0.000000e+000 1.000000e+000
    outer loop
      vertex   -2.264528e+001 3.671675e+000 4.000000e+000
      vertex   -2.744427e+001 3.767108e+000 4.000000e+000
      vertex   -2.723795e+001 3.580345e+000 4.000000e+000
    endloop
  endfacet
  facet normal 0.000000e+000 0.000000e+000 1.000000e+000
    outer loop
      vertex   -2.285886e+001 3.493262e+000 4.000000e+000
      vertex   -2.723795e+001 3.580345e+000 4.000000e+000
      vertex   -2.701745e+001 3.410563e+000 4.000000e+000
    endloop
  endfacet
  facet normal 0.000000e+000 0.000000e+000 1.000000e+000
    outer loop
      vertex   -2.308594e+001 3.332381e+000 4.000000e+000
      vertex   -2.701745e+001 3.410563e+000 4.000000e+000
      vertex   -2.678415e+001 3.258838e+000 4.000000e+000
    endloop
  endfacet
  facet normal 0.000000e+000 0.000000e+000 1.000000e+000
    outer loop
      vertex   -2.332509e+001 3.190051e+000 4.000000e+000
      vertex   -2.678415e+001 3.258838e+000 4.000000e+000
      vertex   -2.653953e+001 3.126128e+000 4.000000e+000
    endloop
  endfacet
  facet normal 0.000000e+000 0.000000e+000 1.000000e+000
    outer loop
      vertex   -2.357479e+001 3.067171e+000 4.000000e+000
      vertex   -2.653953e+001 3.126128e+000 4.000000e+000
      vertex   -2.628515e+001 3.013272e+000 4.000000e+000
    endloop
  endfacet
  facet normal 0.000000e+000 0.000000e+000 1.000000e+000
    outer loop
      vertex   -2.383346e+001 2.964518e+000 4.000000e+000
      vertex   -2.628515e+001 3.013272e+000 4.000000e+000
      vertex   -2.602260e+001 2.920984e+000 4.000000e+000
    endloop
  endfacet
  facet normal 0.000000e+000 0.000000e+000 1.000000e+000
    outer loop
      vertex   -2.409947e+001 2.882740e+000 4.000000e+000
      vertex   -2.602260e+001 2.920984e+000 4.000000e+000
      vertex   -2.575355e+001 2.849847e+000 4.000000e+000
    endloop
  endfacet
  facet normal 0.000000e+000 0.000000e+000 1.000000e+000
    outer loop
      vertex   -2.437113e+001 2.822356e+000 4.000000e+000
      vertex   -2.575355e+001 2.849847e+000 4.000000e+000
      vertex   -2.547970e+001 2.800311e+000 4.000000e+000
    endloop
  endfacet
  facet normal 0.000000e+000 0.000000e+000 1.000000e+000
    outer loop
      vertex   -2.464674e+001 2.783747e+000 4.000000e+000
      vertex   -2.547970e+001 2.800311e+000 4.000000e+000
      vertex   -2.520278e+001 2.772689e+000 4.000000e+000
    endloop
  endfacet
  facet normal 0.000000e+000 -0.000000e+000 1.000000e+000
    outer loop
      vertex   -2.492454e+001 2.767156e+000 4.000000e+000
      vertex   -2.464674e+001 2.783747e+000 4.000000e+000
      vertex   -2.520278e+001 2.772689e+000 4.000000e+000
    endloop
  endfacet
  facet normal 0.000000e+000 0.000000e+000 1.000000e+000
    outer loop
      vertex   -2.156308e+001 5.575118e+000 4.000000e+000
      vertex   -2.839497e+001 5.439259e+000 4.000000e+000
      vertex   -2.162886e+001 5.304707e+000 4.000000e+000
    endloop
  endfacet
  facet normal 0.000000e+000 0.000000e+000 1.000000e+000
    outer loop
      vertex   -2.162886e+001 5.304707e+000 4.000000e+000
      vertex   -2.831850e+001 5.171676e+000 4.000000e+000
      vertex   -2.171591e+001 5.040376e+000 4.000000e+000
    endloop
  endfacet
  facet normal 0.000000e+000 0.000000e+000 1.000000e+000
    outer loop
      vertex   -2.171591e+001 5.040376e+000 4.000000e+000
      vertex   -2.822101e+001 4.911015e+000 4.000000e+000
      vertex   -2.182368e+001 4.783797e+000 4.000000e+000
    endloop
  endfacet
  facet normal 0.000000e+000 0.000000e+000 1.000000e+000
    outer loop
      vertex   -2.182368e+001 4.783797e+000 4.000000e+000
      vertex   -2.810311e+001 4.658924e+000 4.000000e+000
      vertex   -2.195150e+001 4.536592e+000 4.000000e+000
    endloop
  endfacet
  facet normal 0.000000e+000 0.000000e+000 1.000000e+000
    outer loop
      vertex   -2.195150e+001 4.536592e+000 4.000000e+000
      vertex   -2.796557e+001 4.416996e+000 4.000000e+000
      vertex   -2.209856e+001 4.300324e+000 4.000000e+000
    endloop
  endfacet
  facet normal 0.000000e+000 0.000000e+000 1.000000e+000
    outer loop
      vertex   -2.209856e+001 4.300324e+000 4.000000e+000
      vertex   -2.780923e+001 4.186760e+000 4.000000e+000
      vertex   -2.226392e+001 4.076486e+000 4.000000e+000
    endloop
  endfacet
  facet normal 0.000000e+000 0.000000e+000 1.000000e+000
    outer loop
      vertex   -2.226392e+001 4.076486e+000 4.000000e+000
      vertex   -2.763510e+001 3.969674e+000 4.000000e+000
      vertex   -2.244655e+001 3.866494e+000 4.000000e+000
    endloop
  endfacet
  facet normal 0.000000e+000 0.000000e+000 1.000000e+000
    outer loop
      vertex   -2.244655e+001 3.866494e+000 4.000000e+000
      vertex   -2.744427e+001 3.767108e+000 4.000000e+000
      vertex   -2.264528e+001 3.671675e+000 4.000000e+000
    endloop
  endfacet
  facet normal 0.000000e+000 0.000000e+000 1.000000e+000
    outer loop
      vertex   -2.264528e+001 3.671675e+000 4.000000e+000
      vertex   -2.723795e+001 3.580345e+000 4.000000e+000
      vertex   -2.285886e+001 3.493262e+000 4.000000e+000
    endloop
  endfacet
  facet normal 0.000000e+000 0.000000e+000 1.000000e+000
    outer loop
      vertex   -2.285886e+001 3.493262e+000 4.000000e+000
      vertex   -2.701745e+001 3.410563e+000 4.000000e+000
      vertex   -2.308594e+001 3.332381e+000 4.000000e+000
    endloop
  endfacet
  facet normal 0.000000e+000 0.000000e+000 1.000000e+000
    outer loop
      vertex   -2.308594e+001 3.332381e+000 4.000000e+000
      vertex   -2.678415e+001 3.258838e+000 4.000000e+000
      vertex   -2.332509e+001 3.190051e+000 4.000000e+000
    endloop
  endfacet
  facet normal 0.000000e+000 0.000000e+000 1.000000e+000
    outer loop
      vertex   -2.332509e+001 3.190051e+000 4.000000e+000
      vertex   -2.653953e+001 3.126128e+000 4.000000e+000
      vertex   -2.357479e+001 3.067171e+000 4.000000e+000
    endloop
  endfacet
  facet normal 0.000000e+000 0.000000e+000 1.000000e+000
    outer loop
      vertex   -2.357479e+001 3.067171e+000 4.000000e+000
      vertex   -2.628515e+001 3.013272e+000 4.000000e+000
      vertex   -2.383346e+001 2.964518e+000 4.000000e+000
    endloop
  endfacet
  facet normal 0.000000e+000 0.000000e+000 1.000000e+000
    outer loop
      vertex   -2.383346e+001 2.964518e+000 4.000000e+000
      vertex   -2.602260e+001 2.920984e+000 4.000000e+000
      vertex   -2.409947e+001 2.882740e+000 4.000000e+000
    endloop
  endfacet
  facet normal 0.000000e+000 0.000000e+000 1.000000e+000
    outer loop
      vertex   -2.409947e+001 2.882740e+000 4.000000e+000
      vertex   -2.575355e+001 2.849847e+000 4.000000e+000
      vertex   -2.437113e+001 2.822356e+000 4.000000e+000
    endloop
  endfacet
  facet normal 0.000000e+000 0.000000e+000 1.000000e+000
    outer loop
      vertex   -2.437113e+001 2.822356e+000 4.000000e+000
      vertex   -2.547970e+001 2.800311e+000 4.000000e+000
      vertex   -2.464674e+001 2.783747e+000 4.000000e+000
    endloop
  endfacet
  facet normal 0.000000e+000 -0.000000e+000 1.000000e+000
    outer loop
      vertex   -2.149689e+001 6.127316e+000 4.000000e+000
      vertex   -2.149689e+001 6.405612e+000 4.000000e+000
      vertex   -2.849413e+001 6.266464e+000 4.000000e+000
    endloop
  endfacet
  facet normal 0.000000e+000 -0.000000e+000 1.000000e+000
    outer loop
      vertex   -2.849413e+001 6.266464e+000 4.000000e+000
      vertex   -2.149689e+001 6.405612e+000 4.000000e+000
      vertex   -2.848306e+001 6.544540e+000 4.000000e+000
    endloop
  endfacet
  facet normal -0.000000e+000 -0.000000e+000 1.000000e+000
    outer loop
      vertex   -2.848306e+001 6.544540e+000 4.000000e+000
      vertex   -2.149689e+001 6.405612e+000 4.000000e+000
      vertex   -2.151900e+001 6.683028e+000 4.000000e+000
    endloop
  endfacet
  facet normal -0.000000e+000 -0.000000e+000 1.000000e+000
    outer loop
      vertex   -2.844994e+001 6.820857e+000 4.000000e+000
      vertex   -2.151900e+001 6.683028e+000 4.000000e+000
      vertex   -2.156308e+001 6.957810e+000 4.000000e+000
    endloop
  endfacet
  facet normal -0.000000e+000 -0.000000e+000 1.000000e+000
    outer loop
      vertex   -2.839497e+001 7.093670e+000 4.000000e+000
      vertex   -2.156308e+001 6.957810e+000 4.000000e+000
      vertex   -2.162886e+001 7.228221e+000 4.000000e+000
    endloop
  endfacet
  facet normal -0.000000e+000 -0.000000e+000 1.000000e+000
    outer loop
      vertex   -2.831850e+001 7.361252e+000 4.000000e+000
      vertex   -2.162886e+001 7.228221e+000 4.000000e+000
      vertex   -2.171591e+001 7.492552e+000 4.000000e+000
    endloop
  endfacet
  facet normal -0.000000e+000 -0.000000e+000 1.000000e+000
    outer loop
      vertex   -2.822101e+001 7.621913e+000 4.000000e+000
      vertex   -2.171591e+001 7.492552e+000 4.000000e+000
      vertex   -2.182368e+001 7.749131e+000 4.000000e+000
    endloop
  endfacet
  facet normal -0.000000e+000 -0.000000e+000 1.000000e+000
    outer loop
      vertex   -2.810311e+001 7.874005e+000 4.000000e+000
      vertex   -2.182368e+001 7.749131e+000 4.000000e+000
      vertex   -2.195150e+001 7.996336e+000 4.000000e+000
    endloop
  endfacet
  facet normal -0.000000e+000 -0.000000e+000 1.000000e+000
    outer loop
      vertex   -2.796557e+001 8.115933e+000 4.000000e+000
      vertex   -2.195150e+001 7.996336e+000 4.000000e+000
      vertex   -2.209856e+001 8.232605e+000 4.000000e+000
    endloop
  endfacet
  facet normal -0.000000e+000 -0.000000e+000 1.000000e+000
    outer loop
      vertex   -2.780923e+001 8.346168e+000 4.000000e+000
      vertex   -2.209856e+001 8.232605e+000 4.000000e+000
      vertex   -2.226392e+001 8.456442e+000 4.000000e+000
    endloop
  endfacet
  facet normal -0.000000e+000 -0.000000e+000 1.000000e+000
    outer loop
      vertex   -2.763510e+001 8.563254e+000 4.000000e+000
      vertex   -2.226392e+001 8.456442e+000 4.000000e+000
      vertex   -2.244655e+001 8.666434e+000 4.000000e+000
    endloop
  endfacet
  facet normal -0.000000e+000 -0.000000e+000 1.000000e+000
    outer loop
      vertex   -2.744427e+001 8.765820e+000 4.000000e+000
      vertex   -2.244655e+001 8.666434e+000 4.000000e+000
      vertex   -2.264528e+001 8.861253e+000 4.000000e+000
    endloop
  endfacet
  facet normal -0.000000e+000 -0.000000e+000 1.000000e+000
    outer loop
      vertex   -2.723795e+001 8.952583e+000 4.000000e+000
      vertex   -2.264528e+001 8.861253e+000 4.000000e+000
      vertex   -2.285886e+001 9.039667e+000 4.000000e+000
    endloop
  endfacet
  facet normal -0.000000e+000 -0.000000e+000 1.000000e+000
    outer loop
      vertex   -2.701745e+001 9.122365e+000 4.000000e+000
      vertex   -2.285886e+001 9.039667e+000 4.000000e+000
      vertex   -2.308594e+001 9.200547e+000 4.000000e+000
    endloop
  endfacet
  facet normal -0.000000e+000 -0.000000e+000 1.000000e+000
    outer loop
      vertex   -2.678415e+001 9.274090e+000 4.000000e+000
      vertex   -2.308594e+001 9.200547e+000 4.000000e+000
      vertex   -2.332509e+001 9.342877e+000 4.000000e+000
    endloop
  endfacet
  facet normal -0.000000e+000 -0.000000e+000 1.000000e+000
    outer loop
      vertex   -2.653953e+001 9.406800e+000 4.000000e+000
      vertex   -2.332509e+001 9.342877e+000 4.000000e+000
      vertex   -2.357479e+001 9.465757e+000 4.000000e+000
    endloop
  endfacet
  facet normal -0.000000e+000 -0.000000e+000 1.000000e+000
    outer loop
      vertex   -2.628515e+001 9.519656e+000 4.000000e+000
      vertex   -2.357479e+001 9.465757e+000 4.000000e+000
      vertex   -2.383346e+001 9.568411e+000 4.000000e+000
    endloop
  endfacet
  facet normal -0.000000e+000 -0.000000e+000 1.000000e+000
    outer loop
      vertex   -2.602260e+001 9.611944e+000 4.000000e+000
      vertex   -2.383346e+001 9.568411e+000 4.000000e+000
      vertex   -2.409947e+001 9.650188e+000 4.000000e+000
    endloop
  endfacet
  facet normal -0.000000e+000 -0.000000e+000 1.000000e+000
    outer loop
      vertex   -2.575355e+001 9.683081e+000 4.000000e+000
      vertex   -2.409947e+001 9.650188e+000 4.000000e+000
      vertex   -2.437113e+001 9.710572e+000 4.000000e+000
    endloop
  endfacet
  facet normal -0.000000e+000 -0.000000e+000 1.000000e+000
    outer loop
      vertex   -2.547970e+001 9.732617e+000 4.000000e+000
      vertex   -2.437113e+001 9.710572e+000 4.000000e+000
      vertex   -2.464674e+001 9.749182e+000 4.000000e+000
    endloop
  endfacet
  facet normal -0.000000e+000 -0.000000e+000 1.000000e+000
    outer loop
      vertex   -2.520278e+001 9.760239e+000 4.000000e+000
      vertex   -2.464674e+001 9.749182e+000 4.000000e+000
      vertex   -2.492454e+001 9.765772e+000 4.000000e+000
    endloop
  endfacet
  facet normal -0.000000e+000 0.000000e+000 1.000000e+000
    outer loop
      vertex   -2.520278e+001 9.760239e+000 4.000000e+000
      vertex   -2.547970e+001 9.732617e+000 4.000000e+000
      vertex   -2.464674e+001 9.749182e+000 4.000000e+000
    endloop
  endfacet
  facet normal 0.000000e+000 -0.000000e+000 1.000000e+000
    outer loop
      vertex   -2.848306e+001 6.544540e+000 4.000000e+000
      vertex   -2.151900e+001 6.683028e+000 4.000000e+000
      vertex   -2.844994e+001 6.820857e+000 4.000000e+000
    endloop
  endfacet
  facet normal 0.000000e+000 -0.000000e+000 1.000000e+000
    outer loop
      vertex   -2.844994e+001 6.820857e+000 4.000000e+000
      vertex   -2.156308e+001 6.957810e+000 4.000000e+000
      vertex   -2.839497e+001 7.093670e+000 4.000000e+000
    endloop
  endfacet
  facet normal 0.000000e+000 -0.000000e+000 1.000000e+000
    outer loop
      vertex   -2.839497e+001 7.093670e+000 4.000000e+000
      vertex   -2.162886e+001 7.228221e+000 4.000000e+000
      vertex   -2.831850e+001 7.361252e+000 4.000000e+000
    endloop
  endfacet
  facet normal 0.000000e+000 -0.000000e+000 1.000000e+000
    outer loop
      vertex   -2.831850e+001 7.361252e+000 4.000000e+000
      vertex   -2.171591e+001 7.492552e+000 4.000000e+000
      vertex   -2.822101e+001 7.621913e+000 4.000000e+000
    endloop
  endfacet
  facet normal 0.000000e+000 -0.000000e+000 1.000000e+000
    outer loop
      vertex   -2.822101e+001 7.621913e+000 4.000000e+000
      vertex   -2.182368e+001 7.749131e+000 4.000000e+000
      vertex   -2.810311e+001 7.874005e+000 4.000000e+000
    endloop
  endfacet
  facet normal 0.000000e+000 -0.000000e+000 1.000000e+000
    outer loop
      vertex   -2.810311e+001 7.874005e+000 4.000000e+000
      vertex   -2.195150e+001 7.996336e+000 4.000000e+000
      vertex   -2.796557e+001 8.115933e+000 4.000000e+000
    endloop
  endfacet
  facet normal 0.000000e+000 -0.000000e+000 1.000000e+000
    outer loop
      vertex   -2.796557e+001 8.115933e+000 4.000000e+000
      vertex   -2.209856e+001 8.232605e+000 4.000000e+000
      vertex   -2.780923e+001 8.346168e+000 4.000000e+000
    endloop
  endfacet
  facet normal 0.000000e+000 -0.000000e+000 1.000000e+000
    outer loop
      vertex   -2.780923e+001 8.346168e+000 4.000000e+000
      vertex   -2.226392e+001 8.456442e+000 4.000000e+000
      vertex   -2.763510e+001 8.563254e+000 4.000000e+000
    endloop
  endfacet
  facet normal 0.000000e+000 -0.000000e+000 1.000000e+000
    outer loop
      vertex   -2.763510e+001 8.563254e+000 4.000000e+000
      vertex   -2.244655e+001 8.666434e+000 4.000000e+000
      vertex   -2.744427e+001 8.765820e+000 4.000000e+000
    endloop
  endfacet
  facet normal 0.000000e+000 -0.000000e+000 1.000000e+000
    outer loop
      vertex   -2.744427e+001 8.765820e+000 4.000000e+000
      vertex   -2.264528e+001 8.861253e+000 4.000000e+000
      vertex   -2.723795e+001 8.952583e+000 4.000000e+000
    endloop
  endfacet
  facet normal 0.000000e+000 -0.000000e+000 1.000000e+000
    outer loop
      vertex   -2.723795e+001 8.952583e+000 4.000000e+000
      vertex   -2.285886e+001 9.039667e+000 4.000000e+000
      vertex   -2.701745e+001 9.122365e+000 4.000000e+000
    endloop
  endfacet
  facet normal 0.000000e+000 -0.000000e+000 1.000000e+000
    outer loop
      vertex   -2.701745e+001 9.122365e+000 4.000000e+000
      vertex   -2.308594e+001 9.200547e+000 4.000000e+000
      vertex   -2.678415e+001 9.274090e+000 4.000000e+000
    endloop
  endfacet
  facet normal 0.000000e+000 -0.000000e+000 1.000000e+000
    outer loop
      vertex   -2.678415e+001 9.274090e+000 4.000000e+000
      vertex   -2.332509e+001 9.342877e+000 4.000000e+000
      vertex   -2.653953e+001 9.406800e+000 4.000000e+000
    endloop
  endfacet
  facet normal 0.000000e+000 -0.000000e+000 1.000000e+000
    outer loop
      vertex   -2.653953e+001 9.406800e+000 4.000000e+000
      vertex   -2.357479e+001 9.465757e+000 4.000000e+000
      vertex   -2.628515e+001 9.519656e+000 4.000000e+000
    endloop
  endfacet
  facet normal 0.000000e+000 -0.000000e+000 1.000000e+000
    outer loop
      vertex   -2.628515e+001 9.519656e+000 4.000000e+000
      vertex   -2.383346e+001 9.568411e+000 4.000000e+000
      vertex   -2.602260e+001 9.611944e+000 4.000000e+000
    endloop
  endfacet
  facet normal 0.000000e+000 -0.000000e+000 1.000000e+000
    outer loop
      vertex   -2.602260e+001 9.611944e+000 4.000000e+000
      vertex   -2.409947e+001 9.650188e+000 4.000000e+000
      vertex   -2.575355e+001 9.683081e+000 4.000000e+000
    endloop
  endfacet
  facet normal 0.000000e+000 -0.000000e+000 1.000000e+000
    outer loop
      vertex   -2.575355e+001 9.683081e+000 4.000000e+000
      vertex   -2.437113e+001 9.710572e+000 4.000000e+000
      vertex   -2.547970e+001 9.732617e+000 4.000000e+000
    endloop
  endfacet
  facet normal -1.000000e+000 -0.000000e+000 0.000000e+000
    outer loop
      vertex   -3.099413e+001 1.226646e+001 1.469576e-015
      vertex   -3.099413e+001 2.664641e-001 0.000000e+000
      vertex   -3.099413e+001 1.226646e+001 2.000000e+000
    endloop
  endfacet
  facet normal -1.000000e+000 -0.000000e+000 0.000000e+000
    outer loop
      vertex   -3.099413e+001 1.226646e+001 2.000000e+000
      vertex   -3.099413e+001 2.664641e-001 0.000000e+000
      vertex   -3.099413e+001 2.664641e-001 2.000000e+000
    endloop
  endfacet
  facet normal 0.000000e+000 1.000000e+000 -0.000000e+000
    outer loop
      vertex   -7.994125e+000 1.226646e+001 0.000000e+000
      vertex   -1.299413e+001 1.226646e+001 2.000000e+000
      vertex   -7.994125e+000 1.226646e+001 2.000000e+000
    endloop
  endfacet
  facet normal 7.723291e-017 1.000000e+000 1.930823e-016
    outer loop
      vertex   -7.994125e+000 1.226646e+001 0.000000e+000
      vertex   -3.099413e+001 1.226646e+001 1.469576e-015
      vertex   -1.299413e+001 1.226646e+001 2.000000e+000
    endloop
  endfacet
  facet normal 9.868649e-017 1.000000e+000 -0.000000e+000
    outer loop
      vertex   -1.299413e+001 1.226646e+001 2.000000e+000
      vertex   -3.099413e+001 1.226646e+001 1.469576e-015
      vertex   -3.099413e+001 1.226646e+001 2.000000e+000
    endloop
  endfacet
  facet normal -0.000000e+000 1.000000e+000 0.000000e+000
    outer loop
      vertex   -1.299413e+001 1.226646e+001 2.000000e+000
      vertex   -1.299413e+001 1.226646e+001 4.000000e+000
      vertex   -7.994125e+000 1.226646e+001 2.000000e+000
    endloop
  endfacet
  facet normal 0.000000e+000 1.000000e+000 -0.000000e+000
    outer loop
      vertex   -7.994125e+000 1.226646e+001 2.000000e+000
      vertex   -1.299413e+001 1.226646e+001 4.000000e+000
      vertex   5.874603e-003 1.226646e+001 4.000000e+000
    endloop
  endfacet
  facet normal 0.000000e+000 1.000000e+000 -0.000000e+000
    outer loop
      vertex   5.874603e-003 1.226646e+001 2.000000e+000
      vertex   -7.994125e+000 1.226646e+001 2.000000e+000
      vertex   5.874603e-003 1.226646e+001 4.000000e+000
    endloop
  endfacet
  facet normal 7.401487e-017 1.917921e-016 1.000000e+000
    outer loop
      vertex   -3.099413e+001 1.226646e+001 2.000000e+000
      vertex   -2.437113e+001 9.710572e+000 2.000000e+000
      vertex   -1.299413e+001 1.226646e+001 2.000000e+000
    endloop
  endfacet
  facet normal 0.000000e+000 0.000000e+000 1.000000e+000
    outer loop
      vertex   -3.099413e+001 1.226646e+001 2.000000e+000
      vertex   -2.464674e+001 9.749182e+000 2.000000e+000
      vertex   -2.437113e+001 9.710572e+000 2.000000e+000
    endloop
  endfacet
  facet normal 0.000000e+000 0.000000e+000 1.000000e+000
    outer loop
      vertex   -3.099413e+001 1.226646e+001 2.000000e+000
      vertex   -2.492454e+001 9.765772e+000 2.000000e+000
      vertex   -2.464674e+001 9.749182e+000 2.000000e+000
    endloop
  endfacet
  facet normal -0.000000e+000 0.000000e+000 1.000000e+000
    outer loop
      vertex   -3.099413e+001 1.226646e+001 2.000000e+000
      vertex   -2.520278e+001 9.760239e+000 2.000000e+000
      vertex   -2.492454e+001 9.765772e+000 2.000000e+000
    endloop
  endfacet
  facet normal -0.000000e+000 0.000000e+000 1.000000e+000
    outer loop
      vertex   -3.099413e+001 1.226646e+001 2.000000e+000
      vertex   -2.547970e+001 9.732617e+000 2.000000e+000
      vertex   -2.520278e+001 9.760239e+000 2.000000e+000
    endloop
  endfacet
  facet normal -0.000000e+000 0.000000e+000 1.000000e+000
    outer loop
      vertex   -3.099413e+001 1.226646e+001 2.000000e+000
      vertex   -2.575355e+001 9.683081e+000 2.000000e+000
      vertex   -2.547970e+001 9.732617e+000 2.000000e+000
    endloop
  endfacet
  facet normal -0.000000e+000 0.000000e+000 1.000000e+000
    outer loop
      vertex   -3.099413e+001 1.226646e+001 2.000000e+000
      vertex   -2.602260e+001 9.611944e+000 2.000000e+000
      vertex   -2.575355e+001 9.683081e+000 2.000000e+000
    endloop
  endfacet
  facet normal -0.000000e+000 0.000000e+000 1.000000e+000
    outer loop
      vertex   -3.099413e+001 1.226646e+001 2.000000e+000
      vertex   -2.628515e+001 9.519656e+000 2.000000e+000
      vertex   -2.602260e+001 9.611944e+000 2.000000e+000
    endloop
  endfacet
  facet normal -0.000000e+000 0.000000e+000 1.000000e+000
    outer loop
      vertex   -3.099413e+001 1.226646e+001 2.000000e+000
      vertex   -2.653953e+001 9.406800e+000 2.000000e+000
      vertex   -2.628515e+001 9.519656e+000 2.000000e+000
    endloop
  endfacet
  facet normal -0.000000e+000 0.000000e+000 1.000000e+000
    outer loop
      vertex   -3.099413e+001 1.226646e+001 2.000000e+000
      vertex   -2.678415e+001 9.274090e+000 2.000000e+000
      vertex   -2.653953e+001 9.406800e+000 2.000000e+000
    endloop
  endfacet
  facet normal -0.000000e+000 0.000000e+000 1.000000e+000
    outer loop
      vertex   -3.099413e+001 1.226646e+001 2.000000e+000
      vertex   -2.701745e+001 9.122365e+000 2.000000e+000
      vertex   -2.678415e+001 9.274090e+000 2.000000e+000
    endloop
  endfacet
  facet normal -0.000000e+000 0.000000e+000 1.000000e+000
    outer loop
      vertex   -3.099413e+001 1.226646e+001 2.000000e+000
      vertex   -2.723795e+001 8.952583e+000 2.000000e+000
      vertex   -2.701745e+001 9.122365e+000 2.000000e+000
    endloop
  endfacet
  facet normal -0.000000e+000 0.000000e+000 1.000000e+000
    outer loop
      vertex   -3.099413e+001 1.226646e+001 2.000000e+000
      vertex   -2.744427e+001 8.765820e+000 2.000000e+000
      vertex   -2.723795e+001 8.952583e+000 2.000000e+000
    endloop
  endfacet
  facet normal -0.000000e+000 0.000000e+000 1.000000e+000
    outer loop
      vertex   -3.099413e+001 1.226646e+001 2.000000e+000
      vertex   -2.763510e+001 8.563254e+000 2.000000e+000
      vertex   -2.744427e+001 8.765820e+000 2.000000e+000
    endloop
  endfacet
  facet normal -0.000000e+000 0.000000e+000 1.000000e+000
    outer loop
      vertex   -3.099413e+001 1.226646e+001 2.000000e+000
      vertex   -2.780923e+001 8.346168e+000 2.000000e+000
      vertex   -2.763510e+001 8.563254e+000 2.000000e+000
    endloop
  endfacet
  facet normal -0.000000e+000 0.000000e+000 1.000000e+000
    outer loop
      vertex   -3.099413e+001 1.226646e+001 2.000000e+000
      vertex   -2.796557e+001 8.115933e+000 2.000000e+000
      vertex   -2.780923e+001 8.346168e+000 2.000000e+000
    endloop
  endfacet
  facet normal -0.000000e+000 0.000000e+000 1.000000e+000
    outer loop
      vertex   -3.099413e+001 1.226646e+001 2.000000e+000
      vertex   -2.810311e+001 7.874005e+000 2.000000e+000
      vertex   -2.796557e+001 8.115933e+000 2.000000e+000
    endloop
  endfacet
  facet normal -0.000000e+000 0.000000e+000 1.000000e+000
    outer loop
      vertex   -3.099413e+001 1.226646e+001 2.000000e+000
      vertex   -2.822101e+001 7.621913e+000 2.000000e+000
      vertex   -2.810311e+001 7.874005e+000 2.000000e+000
    endloop
  endfacet
  facet normal -0.000000e+000 0.000000e+000 1.000000e+000
    outer loop
      vertex   -3.099413e+001 1.226646e+001 2.000000e+000
      vertex   -2.831850e+001 7.361252e+000 2.000000e+000
      vertex   -2.822101e+001 7.621913e+000 2.000000e+000
    endloop
  endfacet
  facet normal -0.000000e+000 0.000000e+000 1.000000e+000
    outer loop
      vertex   -3.099413e+001 1.226646e+001 2.000000e+000
      vertex   -2.839497e+001 7.093670e+000 2.000000e+000
      vertex   -2.831850e+001 7.361252e+000 2.000000e+000
    endloop
  endfacet
  facet normal -0.000000e+000 0.000000e+000 1.000000e+000
    outer loop
      vertex   -3.099413e+001 1.226646e+001 2.000000e+000
      vertex   -2.844994e+001 6.820857e+000 2.000000e+000
      vertex   -2.839497e+001 7.093670e+000 2.000000e+000
    endloop
  endfacet
  facet normal -0.000000e+000 0.000000e+000 1.000000e+000
    outer loop
      vertex   -3.099413e+001 1.226646e+001 2.000000e+000
      vertex   -2.848306e+001 6.544540e+000 2.000000e+000
      vertex   -2.844994e+001 6.820857e+000 2.000000e+000
    endloop
  endfacet
  facet normal -0.000000e+000 0.000000e+000 1.000000e+000
    outer loop
      vertex   -3.099413e+001 1.226646e+001 2.000000e+000
      vertex   -2.849413e+001 6.266464e+000 2.000000e+000
      vertex   -2.848306e+001 6.544540e+000 2.000000e+000
    endloop
  endfacet
  facet normal -2.664535e-016 -1.110223e-016 1.000000e+000
    outer loop
      vertex   -3.099413e+001 1.226646e+001 2.000000e+000
      vertex   -3.099413e+001 2.664641e-001 2.000000e+000
      vertex   -2.849413e+001 6.266464e+000 2.000000e+000
    endloop
  endfacet
  facet normal -4.864549e-016 -1.935505e-017 1.000000e+000
    outer loop
      vertex   -2.849413e+001 6.266464e+000 2.000000e+000
      vertex   -3.099413e+001 2.664641e-001 2.000000e+000
      vertex   -2.848306e+001 5.988388e+000 2.000000e+000
    endloop
  endfacet
  facet normal -4.167305e-016 -4.995358e-017 1.000000e+000
    outer loop
      vertex   -2.848306e+001 5.988388e+000 2.000000e+000
      vertex   -3.099413e+001 2.664641e-001 2.000000e+000
      vertex   -2.844994e+001 5.712071e+000 2.000000e+000
    endloop
  endfacet
  facet normal -3.658606e-016 -7.371998e-017 1.000000e+000
    outer loop
      vertex   -2.844994e+001 5.712071e+000 2.000000e+000
      vertex   -3.099413e+001 2.664641e-001 2.000000e+000
      vertex   -2.839497e+001 5.439259e+000 2.000000e+000
    endloop
  endfacet
  facet normal -3.267375e-016 -9.337806e-017 1.000000e+000
    outer loop
      vertex   -2.839497e+001 5.439259e+000 2.000000e+000
      vertex   -3.099413e+001 2.664641e-001 2.000000e+000
      vertex   -2.831850e+001 5.171676e+000 2.000000e+000
    endloop
  endfacet
  facet normal -2.953879e-016 -1.104782e-016 1.000000e+000
    outer loop
      vertex   -2.831850e+001 5.171676e+000 2.000000e+000
      vertex   -3.099413e+001 2.664641e-001 2.000000e+000
      vertex   -2.822101e+001 4.911015e+000 2.000000e+000
    endloop
  endfacet
  facet normal -2.694085e-016 -1.259897e-016 1.000000e+000
    outer loop
      vertex   -2.822101e+001 4.911015e+000 2.000000e+000
      vertex   -3.099413e+001 2.664641e-001 2.000000e+000
      vertex   -2.810311e+001 4.658924e+000 2.000000e+000
    endloop
  endfacet
  facet normal -2.472506e-016 -1.405735e-016 1.000000e+000
    outer loop
      vertex   -2.810311e+001 4.658924e+000 2.000000e+000
      vertex   -3.099413e+001 2.664641e-001 2.000000e+000
      vertex   -2.796557e+001 4.416996e+000 2.000000e+000
    endloop
  endfacet
  facet normal -2.278610e-016 -1.547217e-016 1.000000e+000
    outer loop
      vertex   -2.796557e+001 4.416996e+000 2.000000e+000
      vertex   -3.099413e+001 2.664641e-001 2.000000e+000
      vertex   -2.780923e+001 4.186760e+000 2.000000e+000
    endloop
  endfacet
  facet normal -2.104860e-016 -1.688373e-016 1.000000e+000
    outer loop
      vertex   -2.780923e+001 4.186760e+000 2.000000e+000
      vertex   -3.099413e+001 2.664641e-001 2.000000e+000
      vertex   -2.763510e+001 3.969674e+000 2.000000e+000
    endloop
  endfacet
  facet normal -1.945578e-016 -1.832852e-016 1.000000e+000
    outer loop
      vertex   -2.763510e+001 3.969674e+000 2.000000e+000
      vertex   -3.099413e+001 2.664641e-001 2.000000e+000
      vertex   -2.744427e+001 3.767108e+000 2.000000e+000
    endloop
  endfacet
  facet normal -1.796224e-016 -1.984305e-016 1.000000e+000
    outer loop
      vertex   -2.744427e+001 3.767108e+000 2.000000e+000
      vertex   -3.099413e+001 2.664641e-001 2.000000e+000
      vertex   -2.723795e+001 3.580345e+000 2.000000e+000
    endloop
  endfacet
  facet normal -1.652913e-016 -2.146743e-016 1.000000e+000
    outer loop
      vertex   -2.723795e+001 3.580345e+000 2.000000e+000
      vertex   -3.099413e+001 2.664641e-001 2.000000e+000
      vertex   -2.701745e+001 3.410563e+000 2.000000e+000
    endloop
  endfacet
  facet normal -1.512025e-016 -2.324939e-016 1.000000e+000
    outer loop
      vertex   -2.701745e+001 3.410563e+000 2.000000e+000
      vertex   -3.099413e+001 2.664641e-001 2.000000e+000
      vertex   -2.678415e+001 3.258838e+000 2.000000e+000
    endloop
  endfacet
  facet normal -1.369856e-016 -2.524956e-016 1.000000e+000
    outer loop
      vertex   -2.678415e+001 3.258838e+000 2.000000e+000
      vertex   -3.099413e+001 2.664641e-001 2.000000e+000
      vertex   -2.653953e+001 3.126128e+000 2.000000e+000
    endloop
  endfacet
  facet normal -1.222210e-016 -2.754950e-016 1.000000e+000
    outer loop
      vertex   -2.653953e+001 3.126128e+000 2.000000e+000
      vertex   -3.099413e+001 2.664641e-001 2.000000e+000
      vertex   -2.628515e+001 3.013272e+000 2.000000e+000
    endloop
  endfacet
  facet normal -1.063832e-016 -3.026464e-016 1.000000e+000
    outer loop
      vertex   -2.628515e+001 3.013272e+000 2.000000e+000
      vertex   -3.099413e+001 2.664641e-001 2.000000e+000
      vertex   -2.602260e+001 2.920984e+000 2.000000e+000
    endloop
  endfacet
  facet normal -8.875102e-017 -3.356689e-016 1.000000e+000
    outer loop
      vertex   -2.602260e+001 2.920984e+000 2.000000e+000
      vertex   -3.099413e+001 2.664641e-001 2.000000e+000
      vertex   -2.575355e+001 2.849847e+000 2.000000e+000
    endloop
  endfacet
  facet normal -6.824315e-017 -3.772706e-016 1.000000e+000
    outer loop
      vertex   -2.575355e+001 2.849847e+000 2.000000e+000
      vertex   -3.099413e+001 2.664641e-001 2.000000e+000
      vertex   -2.547970e+001 2.800311e+000 2.000000e+000
    endloop
  endfacet
  facet normal -4.309128e-017 -4.320087e-016 1.000000e+000
    outer loop
      vertex   -2.547970e+001 2.800311e+000 2.000000e+000
      vertex   -3.099413e+001 2.664641e-001 2.000000e+000
      vertex   -2.520278e+001 2.772689e+000 2.000000e+000
    endloop
  endfacet
  facet normal -1.010670e-017 -5.082290e-016 1.000000e+000
    outer loop
      vertex   -2.520278e+001 2.772689e+000 2.000000e+000
      vertex   -3.099413e+001 2.664641e-001 2.000000e+000
      vertex   -2.492454e+001 2.767156e+000 2.000000e+000
    endloop
  endfacet
  facet normal 3.721098e-017 -6.230767e-016 1.000000e+000
    outer loop
      vertex   -2.492454e+001 2.767156e+000 2.000000e+000
      vertex   -3.099413e+001 2.664641e-001 2.000000e+000
      vertex   -2.464674e+001 2.783747e+000 2.000000e+000
    endloop
  endfacet
  facet normal 1.146371e-016 -8.183085e-016 1.000000e+000
    outer loop
      vertex   -2.464674e+001 2.783747e+000 2.000000e+000
      vertex   -3.099413e+001 2.664641e-001 2.000000e+000
      vertex   -2.437113e+001 2.822356e+000 2.000000e+000
    endloop
  endfacet
  facet normal -2.572034e-031 -5.212535e-016 1.000000e+000
    outer loop
      vertex   -2.437113e+001 2.822356e+000 2.000000e+000
      vertex   -3.099413e+001 2.664641e-001 2.000000e+000
      vertex   -1.299413e+001 2.664641e-001 2.000000e+000
    endloop
  endfacet
  facet normal 6.791843e-017 -2.209286e-016 1.000000e+000
    outer loop
      vertex   -2.409947e+001 2.882740e+000 2.000000e+000
      vertex   -1.299413e+001 2.664641e-001 2.000000e+000
      vertex   -2.383346e+001 2.964518e+000 2.000000e+000
    endloop
  endfacet
  facet normal 5.823909e-017 -2.620146e-016 1.000000e+000
    outer loop
      vertex   -2.409947e+001 2.882740e+000 2.000000e+000
      vertex   -2.437113e+001 2.822356e+000 2.000000e+000
      vertex   -1.299413e+001 2.664641e-001 2.000000e+000
    endloop
  endfacet
  facet normal 1.566864e-016 0.000000e+000 1.000000e+000
    outer loop
      vertex   -1.299413e+001 1.226646e+001 2.000000e+000
      vertex   -2.149689e+001 6.405612e+000 2.000000e+000
      vertex   -1.299413e+001 2.664641e-001 2.000000e+000
    endloop
  endfacet
  facet normal 1.485266e-016 1.183789e-017 1.000000e+000
    outer loop
      vertex   -1.299413e+001 1.226646e+001 2.000000e+000
      vertex   -2.151900e+001 6.683028e+000 2.000000e+000
      vertex   -2.149689e+001 6.405612e+000 2.000000e+000
    endloop
  endfacet
  facet normal 1.414208e-016 2.268720e-017 1.000000e+000
    outer loop
      vertex   -1.299413e+001 1.226646e+001 2.000000e+000
      vertex   -2.156308e+001 6.957810e+000 2.000000e+000
      vertex   -2.151900e+001 6.683028e+000 2.000000e+000
    endloop
  endfacet
  facet normal 1.351155e-016 3.286488e-017 1.000000e+000
    outer loop
      vertex   -1.299413e+001 1.226646e+001 2.000000e+000
      vertex   -2.162886e+001 7.228221e+000 2.000000e+000
      vertex   -2.156308e+001 6.957810e+000 2.000000e+000
    endloop
  endfacet
  facet normal 1.294226e-016 4.262169e-017 1.000000e+000
    outer loop
      vertex   -1.299413e+001 1.226646e+001 2.000000e+000
      vertex   -2.171591e+001 7.492552e+000 2.000000e+000
      vertex   -2.162886e+001 7.228221e+000 2.000000e+000
    endloop
  endfacet
  facet normal 1.241969e-016 5.216882e-017 1.000000e+000
    outer loop
      vertex   -1.299413e+001 1.226646e+001 2.000000e+000
      vertex   -2.182368e+001 7.749131e+000 2.000000e+000
      vertex   -2.171591e+001 7.492552e+000 2.000000e+000
    endloop
  endfacet
  facet normal 1.193221e-016 6.169696e-017 1.000000e+000
    outer loop
      vertex   -1.299413e+001 1.226646e+001 2.000000e+000
      vertex   -2.195150e+001 7.996336e+000 2.000000e+000
      vertex   -2.182368e+001 7.749131e+000 2.000000e+000
    endloop
  endfacet
  facet normal 1.147007e-016 7.139136e-017 1.000000e+000
    outer loop
      vertex   -1.299413e+001 1.226646e+001 2.000000e+000
      vertex   -2.209856e+001 8.232605e+000 2.000000e+000
      vertex   -2.195150e+001 7.996336e+000 2.000000e+000
    endloop
  endfacet
  facet normal 1.102459e-016 8.144582e-017 1.000000e+000
    outer loop
      vertex   -1.299413e+001 1.226646e+001 2.000000e+000
      vertex   -2.226392e+001 8.456442e+000 2.000000e+000
      vertex   -2.209856e+001 8.232605e+000 2.000000e+000
    endloop
  endfacet
  facet normal 1.058760e-016 9.207770e-017 1.000000e+000
    outer loop
      vertex   -1.299413e+001 1.226646e+001 2.000000e+000
      vertex   -2.244655e+001 8.666434e+000 2.000000e+000
      vertex   -2.226392e+001 8.456442e+000 2.000000e+000
    endloop
  endfacet
  facet normal 1.015080e-016 1.035467e-016 1.000000e+000
    outer loop
      vertex   -1.299413e+001 1.226646e+001 2.000000e+000
      vertex   -2.264528e+001 8.861253e+000 2.000000e+000
      vertex   -2.244655e+001 8.666434e+000 2.000000e+000
    endloop
  endfacet
  facet normal 9.705041e-017 1.161805e-016 1.000000e+000
    outer loop
      vertex   -1.299413e+001 1.226646e+001 2.000000e+000
      vertex   -2.285886e+001 9.039667e+000 2.000000e+000
      vertex   -2.264528e+001 8.861253e+000 2.000000e+000
    endloop
  endfacet
  facet normal 9.239454e-017 1.304141e-016 1.000000e+000
    outer loop
      vertex   -1.299413e+001 1.226646e+001 2.000000e+000
      vertex   -2.308594e+001 9.200547e+000 2.000000e+000
      vertex   -2.285886e+001 9.039667e+000 2.000000e+000
    endloop
  endfacet
  facet normal 8.740068e-017 1.468519e-016 1.000000e+000
    outer loop
      vertex   -1.299413e+001 1.226646e+001 2.000000e+000
      vertex   -2.332509e+001 9.342877e+000 2.000000e+000
      vertex   -2.308594e+001 9.200547e+000 2.000000e+000
    endloop
  endfacet
  facet normal 8.187579e-017 1.663750e-016 1.000000e+000
    outer loop
      vertex   -1.299413e+001 1.226646e+001 2.000000e+000
      vertex   -2.357479e+001 9.465757e+000 2.000000e+000
      vertex   -2.332509e+001 9.342877e+000 2.000000e+000
    endloop
  endfacet
  facet normal 7.553379e-017 1.903342e-016 1.000000e+000
    outer loop
      vertex   -1.299413e+001 1.226646e+001 2.000000e+000
      vertex   -2.383346e+001 9.568411e+000 2.000000e+000
      vertex   -2.357479e+001 9.465757e+000 2.000000e+000
    endloop
  endfacet
  facet normal 6.791843e-017 2.209286e-016 1.000000e+000
    outer loop
      vertex   -1.299413e+001 1.226646e+001 2.000000e+000
      vertex   -2.409947e+001 9.650188e+000 2.000000e+000
      vertex   -2.383346e+001 9.568411e+000 2.000000e+000
    endloop
  endfacet
  facet normal 5.823909e-017 2.620146e-016 1.000000e+000
    outer loop
      vertex   -1.299413e+001 1.226646e+001 2.000000e+000
      vertex   -2.437113e+001 9.710572e+000 2.000000e+000
      vertex   -2.409947e+001 9.650188e+000 2.000000e+000
    endloop
  endfacet
  facet normal 1.566864e-016 0.000000e+000 1.000000e+000
    outer loop
      vertex   -2.149689e+001 6.405612e+000 2.000000e+000
      vertex   -2.149689e+001 6.127316e+000 2.000000e+000
      vertex   -1.299413e+001 2.664641e-001 2.000000e+000
    endloop
  endfacet
  facet normal 1.485266e-016 -1.183789e-017 1.000000e+000
    outer loop
      vertex   -1.299413e+001 2.664641e-001 2.000000e+000
      vertex   -2.149689e+001 6.127316e+000 2.000000e+000
      vertex   -2.151900e+001 5.849900e+000 2.000000e+000
    endloop
  endfacet
  facet normal 1.414208e-016 -2.268720e-017 1.000000e+000
    outer loop
      vertex   -2.156308e+001 5.575118e+000 2.000000e+000
      vertex   -1.299413e+001 2.664641e-001 2.000000e+000
      vertex   -2.151900e+001 5.849900e+000 2.000000e+000
    endloop
  endfacet
  facet normal 1.351155e-016 -3.286488e-017 1.000000e+000
    outer loop
      vertex   -2.156308e+001 5.575118e+000 2.000000e+000
      vertex   -2.162886e+001 5.304707e+000 2.000000e+000
      vertex   -1.299413e+001 2.664641e-001 2.000000e+000
    endloop
  endfacet
  facet normal 1.294226e-016 -4.262169e-017 1.000000e+000
    outer loop
      vertex   -1.299413e+001 2.664641e-001 2.000000e+000
      vertex   -2.162886e+001 5.304707e+000 2.000000e+000
      vertex   -2.171591e+001 5.040376e+000 2.000000e+000
    endloop
  endfacet
  facet normal 1.241969e-016 -5.216882e-017 1.000000e+000
    outer loop
      vertex   -2.182368e+001 4.783797e+000 2.000000e+000
      vertex   -1.299413e+001 2.664641e-001 2.000000e+000
      vertex   -2.171591e+001 5.040376e+000 2.000000e+000
    endloop
  endfacet
  facet normal 1.193221e-016 -6.169696e-017 1.000000e+000
    outer loop
      vertex   -2.182368e+001 4.783797e+000 2.000000e+000
      vertex   -2.195150e+001 4.536592e+000 2.000000e+000
      vertex   -1.299413e+001 2.664641e-001 2.000000e+000
    endloop
  endfacet
  facet normal 1.147007e-016 -7.139136e-017 1.000000e+000
    outer loop
      vertex   -1.299413e+001 2.664641e-001 2.000000e+000
      vertex   -2.195150e+001 4.536592e+000 2.000000e+000
      vertex   -2.209856e+001 4.300324e+000 2.000000e+000
    endloop
  endfacet
  facet normal 1.102459e-016 -8.144582e-017 1.000000e+000
    outer loop
      vertex   -2.226392e+001 4.076486e+000 2.000000e+000
      vertex   -1.299413e+001 2.664641e-001 2.000000e+000
      vertex   -2.209856e+001 4.300324e+000 2.000000e+000
    endloop
  endfacet
  facet normal 1.058760e-016 -9.207770e-017 1.000000e+000
    outer loop
      vertex   -2.226392e+001 4.076486e+000 2.000000e+000
      vertex   -2.244655e+001 3.866494e+000 2.000000e+000
      vertex   -1.299413e+001 2.664641e-001 2.000000e+000
    endloop
  endfacet
  facet normal 1.015080e-016 -1.035467e-016 1.000000e+000
    outer loop
      vertex   -1.299413e+001 2.664641e-001 2.000000e+000
      vertex   -2.244655e+001 3.866494e+000 2.000000e+000
      vertex   -2.264528e+001 3.671675e+000 2.000000e+000
    endloop
  endfacet
  facet normal 9.705041e-017 -1.161805e-016 1.000000e+000
    outer loop
      vertex   -2.285886e+001 3.493262e+000 2.000000e+000
      vertex   -1.299413e+001 2.664641e-001 2.000000e+000
      vertex   -2.264528e+001 3.671675e+000 2.000000e+000
    endloop
  endfacet
  facet normal 9.239454e-017 -1.304141e-016 1.000000e+000
    outer loop
      vertex   -2.285886e+001 3.493262e+000 2.000000e+000
      vertex   -2.308594e+001 3.332381e+000 2.000000e+000
      vertex   -1.299413e+001 2.664641e-001 2.000000e+000
    endloop
  endfacet
  facet normal 8.740068e-017 -1.468519e-016 1.000000e+000
    outer loop
      vertex   -1.299413e+001 2.664641e-001 2.000000e+000
      vertex   -2.308594e+001 3.332381e+000 2.000000e+000
      vertex   -2.332509e+001 3.190051e+000 2.000000e+000
    endloop
  endfacet
  facet normal 8.187579e-017 -1.663750e-016 1.000000e+000
    outer loop
      vertex   -2.357479e+001 3.067171e+000 2.000000e+000
      vertex   -1.299413e+001 2.664641e-001 2.000000e+000
      vertex   -2.332509e+001 3.190051e+000 2.000000e+000
    endloop
  endfacet
  facet normal 7.553379e-017 -1.903342e-016 1.000000e+000
    outer loop
      vertex   -2.357479e+001 3.067171e+000 2.000000e+000
      vertex   -2.383346e+001 2.964518e+000 2.000000e+000
      vertex   -1.299413e+001 2.664641e-001 2.000000e+000
    endloop
  endfacet
  facet normal 0.000000e+000 0.000000e+000 -1.000000e+000
    outer loop
      vertex   -7.994125e+000 2.664641e-001 0.000000e+000
      vertex   -3.099413e+001 2.664641e-001 0.000000e+000
      vertex   -7.994125e+000 1.226646e+001 0.000000e+000
    endloop
  endfacet
  facet normal -6.389462e-017 1.224647e-016 -1.000000e+000
    outer loop
      vertex   -7.994125e+000 1.226646e+001 0.000000e+000
      vertex   -3.099413e+001 2.664641e-001 0.000000e+000
      vertex   -3.099413e+001 1.226646e+001 1.469576e-015
    endloop
  endfacet
endsolid
